<?xml version="1.0" encoding="utf-8"?>
<!-- Generator: Adobe Illustrator 25.0.1, SVG Export Plug-In . SVG Version: 6.00 Build 0)  -->
<svg version="1.1" id="Layer_1" xmlns="http://www.w3.org/2000/svg" xmlns:xlink="http://www.w3.org/1999/xlink" x="0px" y="0px"
	 viewBox="0 0 1920 1080" style="enable-background:new 0 0 1920 1080;" xml:space="preserve">
<style type="text/css">
	.st0{fill:url(#XMLID_2_);}
	.st1{clip-path:url(#XMLID_3_);fill:none;stroke:#FFFFFF;stroke-miterlimit:10;}
	.st2{fill:#FFFFFF;}
</style>
<g>
	<g>
		
			<radialGradient id="XMLID_2_" cx="199.3347" cy="-299.9296" r="1853.1737" gradientTransform="matrix(1.2436 0 0 1.0493 2.421437e-03 -8.078145e-04)" gradientUnits="userSpaceOnUse">
			<stop  offset="0" style="stop-color:#6868FA"/>
			<stop  offset="0.9946" style="stop-color:#4524CB"/>
		</radialGradient>
		<rect id="XMLID_157_" x="-0.01" y="0.02" class="st0" width="1920.01" height="1079.98"/>
		<g id="XMLID_832_">
			<defs>
				<rect id="XMLID_818_" x="-0.01" y="0.02" width="1920.01" height="1079.98"/>
			</defs>
			<clipPath id="XMLID_3_">
				<use xlink:href="#XMLID_818_"  style="overflow:visible;"/>
			</clipPath>
			<path id="XMLID_827_" class="st1" d="M440.88-696.27c0,0,237.25,457.17-104.37,1031.68s145.06,999.09,799.16,1002.49"/>
			<path id="XMLID_817_" class="st1" d="M599.23-557.47c0,0,242.96,302.9,27.2,656.27C410.67,452.19,89.75,845.34,970.92,1200.25"/>
			<path id="XMLID_814_" class="st1" d="M717.97,1736.06c-9.07-7.65-906.42-259.81-656.39-795.44
				C311.6,404.99,120.87,163.41-415.49-130.04"/>
			<path id="XMLID_839_" class="st1" d="M2400.32-887.08c0,0,18.01,498.84-552.96,924.36s-307.13,972.63,298.25,1181.65"/>
			<path id="XMLID_834_" class="st1" d="M2539.12-636.22c0,0,91.5,357.5-264.92,617.46s-828,523.73-167.34,1130.36"/>
			<path id="XMLID_833_" class="st1" d="M1826.82,1191.65c-5.03-9.95-880.3-479.76-411.51-898.03s398.63-702.45,30.73-1143.53"/>
		</g>
		<g id="XMLID_852_">
			<g id="XMLID_843_">
				<ellipse id="XMLID_841_" class="st2" cx="1583.81" cy="630.25" rx="4.25" ry="3.59"/>
				<ellipse id="XMLID_844_" class="st2" cx="1636.2" cy="630.25" rx="4.25" ry="3.59"/>
				<ellipse id="XMLID_848_" class="st2" cx="1688.59" cy="630.25" rx="4.25" ry="3.59"/>
				<ellipse id="XMLID_850_" class="st2" cx="1740.98" cy="630.25" rx="4.25" ry="3.59"/>
				<path id="XMLID_851_" class="st2" d="M1797.62,630.25c0,1.98-1.9,3.59-4.25,3.59c-2.35,0-4.25-1.61-4.25-3.59
					s1.9-3.59,4.25-3.59C1795.72,626.66,1797.62,628.27,1797.62,630.25z"/>
			</g>
			<g id="XMLID_854_">
				<ellipse id="XMLID_864_" class="st2" cx="1583.81" cy="669.02" rx="4.25" ry="3.59"/>
				<ellipse id="XMLID_863_" class="st2" cx="1636.2" cy="669.02" rx="4.25" ry="3.59"/>
				<ellipse id="XMLID_862_" class="st2" cx="1688.59" cy="669.02" rx="4.25" ry="3.59"/>
				<ellipse id="XMLID_859_" class="st2" cx="1740.98" cy="669.02" rx="4.25" ry="3.59"/>
				<path id="XMLID_858_" class="st2" d="M1797.62,669.02c0,1.98-1.9,3.59-4.25,3.59c-2.35,0-4.25-1.61-4.25-3.59
					c0-1.98,1.9-3.59,4.25-3.59C1795.72,665.43,1797.62,667.04,1797.62,669.02z"/>
			</g>
			<g id="XMLID_865_">
				<ellipse id="XMLID_870_" class="st2" cx="1583.81" cy="707.78" rx="4.25" ry="3.59"/>
				<ellipse id="XMLID_869_" class="st2" cx="1636.2" cy="707.78" rx="4.25" ry="3.59"/>
				<ellipse id="XMLID_868_" class="st2" cx="1688.59" cy="707.78" rx="4.25" ry="3.59"/>
				<ellipse id="XMLID_867_" class="st2" cx="1740.98" cy="707.78" rx="4.25" ry="3.59"/>
				<path id="XMLID_866_" class="st2" d="M1797.62,707.78c0,1.98-1.9,3.59-4.25,3.59c-2.35,0-4.25-1.61-4.25-3.59
					s1.9-3.59,4.25-3.59C1795.72,704.2,1797.62,705.8,1797.62,707.78z"/>
			</g>
			<g id="XMLID_871_">
				<ellipse id="XMLID_876_" class="st2" cx="1583.81" cy="746.55" rx="4.25" ry="3.59"/>
				<ellipse id="XMLID_875_" class="st2" cx="1636.2" cy="746.55" rx="4.25" ry="3.59"/>
				<ellipse id="XMLID_874_" class="st2" cx="1688.59" cy="746.55" rx="4.25" ry="3.59"/>
				<ellipse id="XMLID_873_" class="st2" cx="1740.98" cy="746.55" rx="4.25" ry="3.59"/>
				<path id="XMLID_872_" class="st2" d="M1797.62,746.55c0,1.98-1.9,3.59-4.25,3.59c-2.35,0-4.25-1.61-4.25-3.59
					c0-1.98,1.9-3.59,4.25-3.59C1795.72,742.97,1797.62,744.57,1797.62,746.55z"/>
			</g>
			<g id="XMLID_877_">
				<path id="XMLID_884_" class="st2" d="M1588.06,785.32c0,1.98-1.9,3.59-4.25,3.59c-2.35,0-4.25-1.61-4.25-3.59
					c0-1.98,1.9-3.59,4.25-3.59C1586.16,781.73,1588.06,783.34,1588.06,785.32z"/>
				<path id="XMLID_882_" class="st2" d="M1640.45,785.32c0,1.98-1.9,3.59-4.25,3.59c-2.35,0-4.25-1.61-4.25-3.59
					c0-1.98,1.9-3.59,4.25-3.59C1638.55,781.73,1640.45,783.34,1640.45,785.32z"/>
				<path id="XMLID_881_" class="st2" d="M1692.84,785.32c0,1.98-1.9,3.59-4.25,3.59s-4.25-1.61-4.25-3.59
					c0-1.98,1.9-3.59,4.25-3.59S1692.84,783.34,1692.84,785.32z"/>
				<path id="XMLID_879_" class="st2" d="M1745.23,785.32c0,1.98-1.9,3.59-4.25,3.59s-4.25-1.61-4.25-3.59
					c0-1.98,1.9-3.59,4.25-3.59S1745.23,783.34,1745.23,785.32z"/>
				<path id="XMLID_878_" class="st2" d="M1797.62,785.32c0,1.98-1.9,3.59-4.25,3.59c-2.35,0-4.25-1.61-4.25-3.59
					c0-1.98,1.9-3.59,4.25-3.59C1795.72,781.73,1797.62,783.34,1797.62,785.32z"/>
			</g>
		</g>
		<g id="XMLID_886_">
			<g id="XMLID_924_">
				<path id="XMLID_929_" class="st2" d="M321.55,629.78c0,1.27-1.22,2.3-2.72,2.3c-1.5,0-2.72-1.03-2.72-2.3
					c0-1.27,1.22-2.3,2.72-2.3C320.33,627.49,321.55,628.52,321.55,629.78z"/>
				<path id="XMLID_928_" class="st2" d="M355.1,629.78c0,1.27-1.22,2.3-2.72,2.3c-1.5,0-2.72-1.03-2.72-2.3
					c0-1.27,1.22-2.3,2.72-2.3C353.88,627.49,355.1,628.52,355.1,629.78z"/>
				<path id="XMLID_927_" class="st2" d="M388.65,629.78c0,1.27-1.22,2.3-2.72,2.3c-1.5,0-2.72-1.03-2.72-2.3
					c0-1.27,1.22-2.3,2.72-2.3C387.43,627.49,388.65,628.52,388.65,629.78z"/>
				<path id="XMLID_926_" class="st2" d="M422.2,629.78c0,1.27-1.22,2.3-2.72,2.3c-1.5,0-2.72-1.03-2.72-2.3
					c0-1.27,1.22-2.3,2.72-2.3C420.99,627.49,422.2,628.52,422.2,629.78z"/>
				<ellipse id="XMLID_925_" class="st2" cx="453.03" cy="629.78" rx="2.72" ry="2.3"/>
			</g>
			<g id="XMLID_918_">
				<path id="XMLID_923_" class="st2" d="M321.55,654.61c0,1.27-1.22,2.3-2.72,2.3c-1.5,0-2.72-1.03-2.72-2.3
					c0-1.27,1.22-2.3,2.72-2.3C320.33,652.32,321.55,653.34,321.55,654.61z"/>
				<path id="XMLID_922_" class="st2" d="M355.1,654.61c0,1.27-1.22,2.3-2.72,2.3c-1.5,0-2.72-1.03-2.72-2.3
					c0-1.27,1.22-2.3,2.72-2.3C353.88,652.32,355.1,653.34,355.1,654.61z"/>
				<path id="XMLID_921_" class="st2" d="M388.65,654.61c0,1.27-1.22,2.3-2.72,2.3c-1.5,0-2.72-1.03-2.72-2.3
					c0-1.27,1.22-2.3,2.72-2.3C387.43,652.32,388.65,653.34,388.65,654.61z"/>
				<path id="XMLID_920_" class="st2" d="M422.2,654.61c0,1.27-1.22,2.3-2.72,2.3c-1.5,0-2.72-1.03-2.72-2.3
					c0-1.27,1.22-2.3,2.72-2.3C420.99,652.32,422.2,653.34,422.2,654.61z"/>
				<ellipse id="XMLID_919_" class="st2" cx="453.03" cy="654.61" rx="2.72" ry="2.3"/>
			</g>
			<g id="XMLID_912_">
				<path id="XMLID_917_" class="st2" d="M321.55,679.44c0,1.27-1.22,2.3-2.72,2.3c-1.5,0-2.72-1.03-2.72-2.3
					c0-1.27,1.22-2.3,2.72-2.3C320.33,677.14,321.55,678.17,321.55,679.44z"/>
				<path id="XMLID_916_" class="st2" d="M355.1,679.44c0,1.27-1.22,2.3-2.72,2.3c-1.5,0-2.72-1.03-2.72-2.3
					c0-1.27,1.22-2.3,2.72-2.3C353.88,677.14,355.1,678.17,355.1,679.44z"/>
				<path id="XMLID_915_" class="st2" d="M388.65,679.44c0,1.27-1.22,2.3-2.72,2.3c-1.5,0-2.72-1.03-2.72-2.3
					c0-1.27,1.22-2.3,2.72-2.3C387.43,677.14,388.65,678.17,388.65,679.44z"/>
				<path id="XMLID_914_" class="st2" d="M422.2,679.44c0,1.27-1.22,2.3-2.72,2.3c-1.5,0-2.72-1.03-2.72-2.3
					c0-1.27,1.22-2.3,2.72-2.3C420.99,677.14,422.2,678.17,422.2,679.44z"/>
				<path id="XMLID_913_" class="st2" d="M455.76,679.44c0,1.27-1.22,2.3-2.72,2.3c-1.5,0-2.72-1.03-2.72-2.3
					c0-1.27,1.22-2.3,2.72-2.3C454.54,677.14,455.76,678.17,455.76,679.44z"/>
			</g>
			<g id="XMLID_893_">
				<path id="XMLID_911_" class="st2" d="M321.55,704.27c0,1.27-1.22,2.3-2.72,2.3c-1.5,0-2.72-1.03-2.72-2.3
					c0-1.27,1.22-2.3,2.72-2.3C320.33,701.97,321.55,703,321.55,704.27z"/>
				<path id="XMLID_910_" class="st2" d="M355.1,704.27c0,1.27-1.22,2.3-2.72,2.3c-1.5,0-2.72-1.03-2.72-2.3
					c0-1.27,1.22-2.3,2.72-2.3C353.88,701.97,355.1,703,355.1,704.27z"/>
				<path id="XMLID_896_" class="st2" d="M388.65,704.27c0,1.27-1.22,2.3-2.72,2.3c-1.5,0-2.72-1.03-2.72-2.3
					c0-1.27,1.22-2.3,2.72-2.3C387.43,701.97,388.65,703,388.65,704.27z"/>
				<path id="XMLID_895_" class="st2" d="M422.2,704.27c0,1.27-1.22,2.3-2.72,2.3c-1.5,0-2.72-1.03-2.72-2.3
					c0-1.27,1.22-2.3,2.72-2.3C420.99,701.97,422.2,703,422.2,704.27z"/>
				<path id="XMLID_894_" class="st2" d="M455.76,704.27c0,1.27-1.22,2.3-2.72,2.3c-1.5,0-2.72-1.03-2.72-2.3
					c0-1.27,1.22-2.3,2.72-2.3C454.54,701.97,455.76,703,455.76,704.27z"/>
			</g>
			<g id="XMLID_887_">
				<path id="XMLID_892_" class="st2" d="M321.55,729.1c0,1.27-1.22,2.3-2.72,2.3c-1.5,0-2.72-1.03-2.72-2.3
					c0-1.27,1.22-2.3,2.72-2.3C320.33,726.8,321.55,727.83,321.55,729.1z"/>
				<path id="XMLID_891_" class="st2" d="M355.1,729.1c0,1.27-1.22,2.3-2.72,2.3c-1.5,0-2.72-1.03-2.72-2.3
					c0-1.27,1.22-2.3,2.72-2.3C353.88,726.8,355.1,727.83,355.1,729.1z"/>
				<path id="XMLID_890_" class="st2" d="M388.65,729.1c0,1.27-1.22,2.3-2.72,2.3c-1.5,0-2.72-1.03-2.72-2.3
					c0-1.27,1.22-2.3,2.72-2.3C387.43,726.8,388.65,727.83,388.65,729.1z"/>
				<path id="XMLID_889_" class="st2" d="M422.2,729.1c0,1.27-1.22,2.3-2.72,2.3c-1.5,0-2.72-1.03-2.72-2.3
					c0-1.27,1.22-2.3,2.72-2.3C420.99,726.8,422.2,727.83,422.2,729.1z"/>
				<ellipse id="XMLID_888_" class="st2" cx="453.03" cy="729.1" rx="2.72" ry="2.3"/>
			</g>
		</g>
	</g>
</g>
</svg>
