<?xml version="1.0" encoding="utf-8"?>
<!-- Generator: Adobe Illustrator 25.0.1, SVG Export Plug-In . SVG Version: 6.00 Build 0)  -->
<svg version="1.1" id="Layer_1" xmlns="http://www.w3.org/2000/svg" xmlns:xlink="http://www.w3.org/1999/xlink" x="0px" y="0px"
	 viewBox="0 0 729 975" style="enable-background:new 0 0 729 975;" xml:space="preserve">
<style type="text/css">
	.st0{fill:#E9C988;}
	.st1{opacity:0.22;fill:#676767;}
	.st2{fill:#FCDB94;}
	.st3{fill:#6198C5;}
	.st4{fill:#CBEAF2;}
	.st5{fill:#3C3956;}
	.st6{fill:#DBDBDA;}
	.st7{fill:#80C242;}
	.st8{fill:#CACDCD;}
	.st9{fill:#5369A3;}
	.st10{fill:#5D6263;}
	.st11{fill:#6CB2B5;}
	.st12{fill:#E8E8E6;}
	.st13{fill:#FFFFFF;}
	.st14{fill:#9B9D9E;}
	.st15{fill:#59679D;}
	.st16{fill:#8C98B7;}
	.st17{fill:#2095A2;}
	.st18{fill:#595A5B;}
	.st19{fill:#A4A3A3;}
	.st20{fill:#1B67B0;}
	.st21{fill:#319EC0;}
	.st22{fill:#C12227;}
	.st23{fill:#E86044;}
	.st24{fill:#72AEBC;}
	.st25{fill:#E4E4E4;}
	.st26{fill:#5B4A42;}
	.st27{fill:#CDBFBB;}
	.st28{fill:#96CDC6;}
	.st29{fill:#606262;}
	.st30{fill:#C0E4E1;}
	.st31{fill:#EF4C48;}
	.st32{fill:#3E803D;}
	.st33{fill:#4F504F;}
	.st34{fill:#9A8479;}
	.st35{fill:#EE4237;}
	.st36{fill:#B3A098;}
	.st37{fill:#DADDEB;}
	.st38{fill:#B3A9B4;}
	.st39{fill:#9D8F96;}
	.st40{fill:#87787D;}
	.st41{fill:#CD4045;}
	.st42{fill:#F7BB1B;}
	.st43{fill:#DB1E35;}
	.st44{fill:#EE3D3B;}
	.st45{fill:#3A3A3A;}
	.st46{fill:#525352;}
	.st47{fill:#9E9D9E;}
	.st48{fill:#666766;}
	.st49{fill:#9B302F;}
	.st50{fill:#C6C5C4;}
	.st51{fill:#6D6D6D;}
	.st52{fill:#FCBA21;}
	.st53{fill:#E02B43;}
	.st54{fill:#353535;}
	.st55{fill:#878887;}
	.st56{fill:#5C595A;}
	.st57{fill:#6B6B6B;}
	.st58{fill:#444444;}
	.st59{fill:#F37B4D;}
	.st60{fill:#F05725;}
	.st61{fill:#636565;}
	.st62{fill:#4A494A;}
	.st63{fill:#5D9BB3;}
	.st64{fill:#438498;}
	.st65{fill:#767576;}
	.st66{fill:#FFCC0A;}
	.st67{fill:#59595B;}
	.st68{fill:#ABABAB;}
	.st69{fill:#06BFF1;}
	.st70{fill:#2CA9E1;}
	.st71{fill:#F9A41C;}
	.st72{fill:#231F20;}
	.st73{fill:#C52727;}
	.st74{fill:#EE4137;}
	.st75{fill:#CCC7C9;}
	.st76{fill:#DDDADB;}
</style>
<g id="XMLID_8_">
	<rect id="XMLID_65_" x="91.3" y="228" class="st0" width="439.39" height="562.8"/>
	<path id="XMLID_64_" class="st1" d="M588.32,854.18c0,24.2-124.16,43.82-277.33,43.82S33.66,878.38,33.66,854.18
		c0-24.2,124.16-43.82,277.33-43.82S588.32,829.99,588.32,854.18z"/>
	<rect id="XMLID_63_" x="69.33" y="767.96" class="st2" width="483.34" height="86.23"/>
	<rect id="XMLID_60_" x="69.33" y="623.4" class="st2" width="483.34" height="20.51"/>
	<rect id="XMLID_57_" x="69.33" y="486.03" class="st2" width="483.34" height="20.51"/>
	<rect id="XMLID_56_" x="69.33" y="347.07" class="st2" width="483.34" height="20.52"/>
	<polygon id="XMLID_55_" class="st3" points="138.71,163.38 138.71,233.49 103.64,259.44 69.8,233.49 69.8,163.38 	"/>
	<polygon id="XMLID_54_" class="st4" points="207.63,163.38 207.63,233.49 172.56,259.44 138.71,233.49 138.71,163.38 	"/>
	<polygon id="XMLID_51_" class="st3" points="276.54,163.38 276.54,233.49 241.48,259.44 207.63,233.49 207.63,163.38 	"/>
	<polygon id="XMLID_36_" class="st4" points="345.46,163.38 345.46,233.49 310.39,259.44 276.54,233.49 276.54,163.38 	"/>
	<polygon id="XMLID_35_" class="st3" points="414.37,163.38 414.37,233.49 379.31,259.44 345.46,233.49 345.46,163.38 	"/>
	<polygon id="XMLID_27_" class="st4" points="483.29,163.38 483.29,233.49 448.22,259.44 414.37,233.49 414.37,163.38 	"/>
	<polygon id="XMLID_20_" class="st3" points="552.2,163.38 552.2,233.49 517.14,259.44 483.29,233.49 483.29,163.38 	"/>
	<polygon id="XMLID_15_" class="st1" points="530.69,367.57 530.69,389.55 490.27,429.96 91.29,429.96 91.29,367.57 	"/>
	<polygon id="XMLID_13_" class="st1" points="530.69,506.52 530.69,528.51 490.27,568.89 91.29,568.89 91.29,506.52 	"/>
	<polygon id="XMLID_11_" class="st1" points="530.69,643.9 530.69,665.87 490.27,706.28 91.29,706.28 91.29,643.9 	"/>
	<polygon id="XMLID_10_" class="st1" points="530.69,249.41 530.69,255.01 489.83,295.86 454.76,321.82 420.89,295.86 
		385.85,321.82 351.99,295.86 316.92,321.82 283.08,295.86 248.01,321.82 214.17,295.86 179.1,321.82 145.23,295.86 110.17,321.82 
		91.29,307.33 91.29,250 103.62,259.45 138.69,233.5 145.23,238.51 172.56,259.45 207.63,233.5 214.17,238.51 241.46,259.45 
		276.53,233.5 283.08,238.51 310.38,259.45 345.45,233.5 351.99,238.51 379.28,259.45 414.35,233.5 420.89,238.51 448.22,259.45 
		483.29,233.5 489.83,238.51 517.12,259.45 	"/>
</g>
<g id="XMLID_66_">
	<g id="XMLID_87_">
		<path id="XMLID_88_" class="st5" d="M559.22,261.55c-0.5,0.5-1.17,0.85-1.94,0.96c-1.85,0.25-3.57-1.05-3.83-2.9l-7.39-53.81
			c-0.15-1.03,0.2-2.08,0.94-2.83c0.69-0.73,1.77-1.12,2.82-1l54.78,6.41c1.86,0.22,3.19,1.91,2.98,3.76
			c-0.22,1.86-1.9,3.19-3.77,2.98l-50.43-5.9l6.8,49.46C560.34,259.78,559.95,260.83,559.22,261.55z"/>
	</g>
	<path id="XMLID_86_" class="st6" d="M599.97,363.15c-5.89,5.89-15.46,5.89-21.35,0l-56.46-56.46c-5.89-5.89-5.89-15.46,0-21.35
		L626.61,180.9c5.88-5.88,15.46-5.89,21.34,0l56.46,56.46c5.89,5.89,5.88,15.46,0,21.34L599.97,363.15z"/>
	<path id="XMLID_83_" class="st7" d="M668.56,216.75l28.23,28.23c1.68,1.68,1.68,4.41,0,6.09L592.34,355.52
		c-1.69,1.69-4.41,1.68-6.1,0l-28.23-28.23L668.56,216.75z"/>
	<path id="XMLID_82_" class="st8" d="M557.14,197.64c4.5,4.5,4.65,11.64,0.33,15.96c-4.32,4.32-11.46,4.17-15.96-0.33
		c-4.5-4.5-4.64-11.64-0.33-15.96C545.5,193,552.64,193.14,557.14,197.64z"/>
	<g id="XMLID_67_">
		<path id="XMLID_79_" class="st9" d="M583.28,270.48c1.37,1.37,2.42,2.76,3.16,4.19c0.74,1.42,1.15,2.84,1.23,4.27
			c0.08,1.42-0.18,2.83-0.78,4.21c-0.59,1.39-1.54,2.73-2.84,4.03c-1.29,1.29-2.58,2.24-3.87,2.86c-1.29,0.62-2.6,0.9-3.93,0.85
			c-1.33-0.05-2.68-0.45-4.06-1.19c-1.38-0.75-2.8-1.85-4.25-3.3c-1.33-1.33-2.37-2.71-3.1-4.11c-0.73-1.41-1.13-2.82-1.2-4.24
			c-0.08-1.42,0.18-2.83,0.77-4.22c0.59-1.39,1.54-2.74,2.85-4.05c1.25-1.25,2.52-2.19,3.81-2.81c1.29-0.63,2.6-0.91,3.93-0.87
			c1.33,0.05,2.68,0.43,4.06,1.16C580.45,267.98,581.85,269.06,583.28,270.48z M579.94,274.18c-0.87-0.87-1.73-1.59-2.57-2.17
			c-0.85-0.57-1.68-0.95-2.52-1.13c-0.83-0.18-1.66-0.14-2.48,0.14c-0.82,0.26-1.64,0.81-2.46,1.62c-0.83,0.83-1.36,1.67-1.6,2.53
			c-0.24,0.86-0.28,1.72-0.1,2.58c0.18,0.86,0.55,1.7,1.1,2.54c0.55,0.83,1.22,1.64,1.99,2.41c0.9,0.9,1.78,1.64,2.63,2.23
			c0.85,0.59,1.7,0.96,2.53,1.16c0.84,0.18,1.66,0.14,2.47-0.14c0.81-0.27,1.63-0.83,2.45-1.65c0.82-0.82,1.36-1.67,1.61-2.53
			c0.25-0.86,0.28-1.72,0.09-2.59c-0.19-0.87-0.57-1.72-1.13-2.56C581.4,275.79,580.73,274.97,579.94,274.18z"/>
		<path id="XMLID_74_" class="st9" d="M594.35,253.31c0.93,0.93,1.61,1.89,2.03,2.9c0.43,1,0.6,2.02,0.55,3.07
			c-0.07,1.04-0.37,2.09-0.91,3.15c-0.55,1.06-1.38,2.13-2.46,3.22l-1.38,1.38l5.27,5.27c0.09,0.09,0.13,0.19,0.14,0.31
			c0.01,0.13-0.02,0.27-0.11,0.44c-0.09,0.17-0.22,0.38-0.41,0.61c-0.19,0.24-0.45,0.52-0.78,0.85c-0.32,0.32-0.6,0.58-0.84,0.77
			c-0.24,0.19-0.45,0.33-0.62,0.41c-0.17,0.09-0.31,0.12-0.44,0.1c-0.12-0.02-0.22-0.07-0.3-0.15l-14.85-14.85
			c-0.4-0.4-0.59-0.8-0.59-1.21c0.01-0.4,0.18-0.79,0.52-1.12l3.89-3.89c0.39-0.39,0.78-0.75,1.16-1.07
			c0.38-0.32,0.87-0.68,1.46-1.08c0.59-0.39,1.27-0.71,2.04-0.96c0.77-0.24,1.54-0.34,2.29-0.29c0.76,0.05,1.51,0.24,2.23,0.6
			C592.98,252.13,593.68,252.64,594.35,253.31z M591.08,257.06c-0.58-0.58-1.16-0.95-1.73-1.13c-0.58-0.17-1.11-0.19-1.58-0.08
			c-0.47,0.12-0.9,0.32-1.27,0.6c-0.38,0.28-0.74,0.6-1.08,0.94l-1.43,1.43l5.6,5.6l1.5-1.5c0.54-0.54,0.91-1.06,1.13-1.56
			c0.22-0.51,0.31-1,0.28-1.49c-0.03-0.49-0.16-0.97-0.41-1.46C591.84,257.94,591.51,257.49,591.08,257.06z"/>
		<path id="XMLID_70_" class="st9" d="M616.92,251.11c0.24,0.24,0.44,0.46,0.58,0.65c0.15,0.18,0.25,0.35,0.31,0.5
			c0.06,0.15,0.08,0.27,0.06,0.39c-0.02,0.11-0.06,0.2-0.14,0.28l-8.29,8.29c-0.28,0.28-0.6,0.43-0.96,0.46
			c-0.36,0.02-0.72-0.15-1.09-0.52L593,246.76c-0.37-0.37-0.55-0.74-0.53-1.1c0.03-0.36,0.18-0.68,0.46-0.96l8.24-8.24
			c0.08-0.08,0.17-0.12,0.27-0.14c0.1-0.02,0.23,0.01,0.37,0.08c0.15,0.06,0.32,0.17,0.51,0.31c0.19,0.15,0.41,0.34,0.66,0.6
			c0.24,0.24,0.43,0.45,0.58,0.64c0.14,0.19,0.25,0.35,0.3,0.5c0.06,0.14,0.09,0.27,0.08,0.37c-0.02,0.11-0.06,0.2-0.14,0.28
			l-5.89,5.89l4.03,4.03l4.99-4.99c0.07-0.07,0.17-0.12,0.28-0.14c0.11-0.02,0.24,0,0.37,0.06c0.14,0.05,0.31,0.15,0.5,0.3
			c0.19,0.14,0.4,0.33,0.64,0.57c0.25,0.25,0.44,0.46,0.58,0.64c0.14,0.18,0.24,0.34,0.29,0.49c0.06,0.14,0.07,0.26,0.05,0.37
			c-0.02,0.11-0.07,0.2-0.15,0.27l-4.99,4.99l4.66,4.66l5.95-5.95c0.08-0.08,0.17-0.12,0.28-0.14c0.11-0.02,0.24,0,0.39,0.06
			c0.14,0.06,0.31,0.16,0.5,0.31C616.45,250.67,616.67,250.86,616.92,251.11z"/>
		<path id="XMLID_68_" class="st9" d="M633.63,234.68c0.2,0.2,0.34,0.4,0.42,0.63c0.08,0.22,0.12,0.44,0.1,0.65
			c-0.01,0.23-0.07,0.43-0.18,0.63c-0.11,0.21-0.25,0.39-0.41,0.55l-1.43,1.43c-0.3,0.3-0.59,0.53-0.86,0.69
			c-0.27,0.16-0.58,0.25-0.92,0.27c-0.34,0.02-0.73-0.01-1.17-0.11c-0.43-0.1-0.98-0.26-1.61-0.47l-11.83-3.61
			c-0.69-0.22-1.43-0.47-2.21-0.76c-0.78-0.28-1.51-0.58-2.22-0.88l-0.02,0.02c0.65,0.58,1.28,1.17,1.9,1.76
			c0.62,0.59,1.26,1.21,1.91,1.85l8.63,8.63c0.09,0.09,0.14,0.19,0.16,0.31c0.02,0.11,0,0.25-0.07,0.41
			c-0.07,0.16-0.18,0.35-0.35,0.57c-0.17,0.23-0.41,0.48-0.72,0.79c-0.3,0.3-0.55,0.54-0.78,0.7c-0.22,0.17-0.41,0.29-0.57,0.35
			c-0.16,0.06-0.29,0.08-0.4,0.06c-0.11-0.03-0.21-0.09-0.3-0.17l-14.84-14.84c-0.4-0.4-0.58-0.81-0.55-1.25
			c0.04-0.43,0.22-0.82,0.56-1.16l1.8-1.8c0.32-0.32,0.62-0.57,0.9-0.73c0.28-0.17,0.57-0.27,0.87-0.32
			c0.3-0.05,0.64-0.04,1.02,0.04c0.38,0.07,0.81,0.19,1.31,0.36l9.25,2.82c0.55,0.18,1.09,0.35,1.63,0.52
			c0.54,0.17,1.07,0.34,1.59,0.52c0.52,0.19,1.03,0.37,1.54,0.55c0.5,0.18,0.99,0.36,1.49,0.55l0.01-0.01
			c-0.62-0.57-1.26-1.17-1.92-1.8c-0.66-0.64-1.28-1.24-1.87-1.83l-7.74-7.74c-0.09-0.09-0.14-0.19-0.15-0.31
			c-0.02-0.12,0.01-0.27,0.08-0.44c0.06-0.17,0.18-0.36,0.36-0.58c0.17-0.21,0.41-0.48,0.72-0.78c0.29-0.29,0.55-0.52,0.76-0.7
			c0.22-0.17,0.4-0.29,0.56-0.35c0.15-0.06,0.29-0.07,0.4-0.04c0.11,0.02,0.21,0.08,0.29,0.17L633.63,234.68z"/>
	</g>
</g>
<g id="XMLID_157_">
	<path id="XMLID_210_" class="st10" d="M158.29,278.13c-0.42,0-0.76-0.34-0.76-0.76v-11.51c-0.01-0.17-0.3-5.44,2.99-8.92
		c1.85-1.96,4.41-2.93,7.7-2.91c10.49,0.07,14.36,0,14.4,0c0.04,0,5.91-0.34,8.38-3.39c0.93-1.14,1.25-2.49,0.99-4.14
		c-0.07-0.41,0.21-0.8,0.63-0.87c0.42-0.06,0.8,0.22,0.87,0.63c0.33,2.06-0.11,3.86-1.31,5.33c-2.9,3.57-9.23,3.93-9.5,3.94
		c-0.06,0-3.95,0.07-14.46,0c-2.8-0.02-5.03,0.8-6.58,2.43c-2.84,2.99-2.58,7.79-2.58,7.83l0,11.56
		C159.05,277.79,158.71,278.13,158.29,278.13L158.29,278.13z"/>
	<path id="XMLID_209_" class="st11" d="M131.22,273.23c0.06-0.29,0.09-0.58,0.02-0.87c-0.3-1.46-2.12-2.33-4.06-1.93l-5.52,1.13
		c-1.94,0.4-3.28,1.9-2.97,3.37c0.05,0.22,0.14,0.43,0.25,0.62C122.62,273.7,126.83,272.83,131.22,273.23L131.22,273.23z"/>
	<polygon id="XMLID_208_" class="st11" points="160.25,275.55 156.33,275.55 156.33,282.72 160.25,282.72 160.25,275.55 	"/>
	<path id="XMLID_207_" class="st11" d="M187.67,273.23c-0.06-0.29-0.09-0.58-0.02-0.87c0.3-1.46,2.12-2.33,4.06-1.93l5.52,1.13
		c1.94,0.4,3.28,1.9,2.98,3.37c-0.05,0.22-0.14,0.43-0.25,0.62C196.28,273.7,192.06,272.83,187.67,273.23L187.67,273.23z"/>
	<path id="XMLID_206_" class="st11" d="M215.54,323.6l-0.49-4.7l-2.44-23.27l-0.22-2.11c-0.84-8-5.74-14.6-12.44-17.96
		c-3.68-1.84-7.89-2.72-12.28-2.31c-0.09,0.01-0.19,0.01-0.28,0.02c-6.57,0.69-12.17,4.13-15.84,9.04h-24.22
		c-3.67-4.91-9.27-8.35-15.84-9.04c-0.09-0.01-0.19-0.01-0.28-0.02c-4.39-0.4-8.6,0.47-12.28,2.31c-6.7,3.36-11.6,9.96-12.44,17.96
		l-0.22,2.11l-2.44,23.27l-0.49,4.7c-1.03,9.84,4.68,18.51,12.75,19.36c7.24,0.75,13.92-5.05,15.96-13.35
		c0.34-0.69,1.04-1.16,1.86-1.16c0.48,0,0.91,0.16,1.26,0.43c2.07,2.39,5.11,3.91,8.51,3.91c1.62,0,3.15-0.35,4.55-0.96
		c3.23-1.43,5.67-4.33,6.46-7.85h9.51c0.79,3.52,3.23,6.42,6.46,7.85c1.39,0.61,2.93,0.96,4.55,0.96c3.4,0,6.44-1.52,8.51-3.91
		c0.35-0.27,0.79-0.43,1.26-0.43c0.82,0,1.52,0.47,1.86,1.16c2.04,8.31,8.72,14.1,15.96,13.35
		C210.87,342.11,216.57,333.44,215.54,323.6L215.54,323.6z"/>
	<path id="XMLID_205_" class="st12" d="M212.19,321.3l-0.47-4.52l-2.34-22.36l-0.21-2.03c-0.81-7.69-5.52-14.02-11.95-17.26
		c-3.53-1.77-7.58-2.61-11.8-2.22c-0.09,0.01-0.18,0.01-0.27,0.02c-6.31,0.66-11.7,3.97-15.22,8.68h-23.27
		c-3.52-4.72-8.9-8.02-15.22-8.68c-0.09-0.01-0.18-0.01-0.27-0.02c-4.22-0.39-8.27,0.45-11.8,2.22
		c-6.44,3.23-11.14,9.57-11.95,17.26l-0.21,2.03l-2.34,22.36l-0.47,4.52c-0.99,9.46,4.49,17.78,12.25,18.6
		c6.96,0.72,13.38-4.85,15.34-12.83c0.32-0.66,1-1.12,1.78-1.12c0.46,0,0.88,0.16,1.21,0.41c1.98,2.3,4.91,3.76,8.18,3.76
		c1.56,0,3.03-0.33,4.37-0.93c3.1-1.37,5.45-4.16,6.21-7.53h12.42c0.76,3.38,3.1,5.07,6.21,6.44c1.34,0.59,2.81-0.17,4.37-0.17
		c3.27,0,2.91,0.73,4.89-1.57c0.34-0.26,0.76-0.41,1.21-0.41c0.79,0,1.46,0.46,1.78,1.12c1.96,7.98,8.38,13.55,15.34,12.83
		C207.7,339.08,213.18,330.75,212.19,321.3L212.19,321.3z"/>
	<path id="XMLID_204_" class="st13" d="M137.61,300.29c0,6.06-4.94,10.97-11.04,10.97c-6.1,0-11.04-4.91-11.04-10.97
		c0-6.06,4.94-10.97,11.04-10.97C132.67,289.32,137.61,294.23,137.61,300.29L137.61,300.29z"/>
	<path id="XMLID_201_" class="st11" d="M126.16,282.29c-9.66,0-17.52,7.86-17.52,17.52c0,9.66,7.86,17.52,17.52,17.52
		c9.66,0,17.52-7.86,17.52-17.52C143.68,290.15,135.82,282.29,126.16,282.29L126.16,282.29L126.16,282.29z M127.26,289.46
		c6.32,0,10.36,4.03,10.36,10.36c0,6.32-5.13,11.45-11.45,11.45c-6.32,0-10.36-4.03-10.36-10.36
		C115.81,294.58,120.93,289.46,127.26,289.46L127.26,289.46L127.26,289.46z"/>
	<path id="XMLID_198_" class="st12" d="M125.5,282.29c-9.29,0-16.85,7.24-16.85,16.14c0,8.9,7.56,16.14,16.85,16.14
		c9.29,0,16.85-7.24,16.85-16.14C142.35,289.54,134.79,282.29,125.5,282.29L125.5,282.29L125.5,282.29z M125.5,287.89
		c6.08,0,11.01,4.72,11.01,10.55c0,5.83-4.93,10.55-11.01,10.55c-6.08,0-11.01-4.72-11.01-10.55
		C114.48,292.61,119.41,287.89,125.5,287.89L125.5,287.89L125.5,287.89z"/>
	<path id="XMLID_195_" class="st11" d="M142.83,308.1c-6.22,0-11.28,5.06-11.28,11.28c0,6.22,5.06,11.28,11.28,11.28
		c6.22,0,11.28-5.06,11.28-11.28C154.11,313.16,149.05,308.1,142.83,308.1L142.83,308.1L142.83,308.1z M142.83,312.01
		c4.07,0,7.37,3.3,7.37,7.37c0,4.07-3.3,7.37-7.37,7.37c-4.07,0-7.37-3.3-7.37-7.37C135.46,315.31,138.76,312.01,142.83,312.01
		L142.83,312.01L142.83,312.01z"/>
	<path id="XMLID_192_" class="st12" d="M142.35,307.76c-5.87,0-10.64,4.77-10.64,10.64c0,5.87,4.77,10.64,10.64,10.64
		c5.87,0,10.64-4.77,10.64-10.64C152.99,312.53,148.21,307.76,142.35,307.76L142.35,307.76L142.35,307.76z M142.35,311.44
		c3.84,0,6.95,3.11,6.95,6.95c0,3.84-3.11,6.95-6.95,6.95c-3.84,0-6.95-3.11-6.95-6.95C135.39,314.55,138.5,311.44,142.35,311.44
		L142.35,311.44L142.35,311.44z"/>
	<path id="XMLID_191_" class="st10" d="M149.75,318.66c0,4.09-3.31,7.4-7.4,7.4c-4.09,0-7.4-3.32-7.4-7.4c0-4.09,3.31-7.4,7.4-7.4
		C146.43,311.25,149.75,314.57,149.75,318.66L149.75,318.66z"/>
	<path id="XMLID_190_" class="st14" d="M148.77,317.8c0,3.62-3.1,6.55-6.92,6.55c-3.82,0-6.92-2.93-6.92-6.55
		c0-3.62,3.1-6.55,6.92-6.55C145.68,311.25,148.77,314.18,148.77,317.8L148.77,317.8z"/>
	<path id="XMLID_189_" class="st15" d="M131.23,296.65h-1.96v-1.96c0-1.75-1.41-3.16-3.16-3.16c-1.75,0-3.16,1.41-3.16,3.16v1.96
		h-1.96c-1.75,0-3.16,1.41-3.16,3.16c0,1.74,1.42,3.16,3.16,3.16h1.96v1.96c0,1.74,1.42,3.16,3.16,3.16c1.75,0,3.16-1.42,3.16-3.16
		v-1.96h1.96c1.74,0,3.16-1.42,3.16-3.16C134.39,298.07,132.97,296.65,131.23,296.65L131.23,296.65z"/>
	<path id="XMLID_186_" class="st16" d="M130.41,296.48h-1.78v-1.77c0-1.58-1.28-2.87-2.87-2.87c-1.58,0-2.87,1.28-2.87,2.87v1.77
		h-1.78c-1.58,0-2.87,1.28-2.87,2.87c0,1.58,1.28,2.87,2.87,2.87h1.78v1.78c0,1.58,1.28,2.86,2.87,2.86c1.58,0,2.87-1.28,2.87-2.86
		v-1.78h1.78c1.58,0,2.87-1.28,2.87-2.87C133.27,297.76,131.99,296.48,130.41,296.48L130.41,296.48z"/>
	<path id="XMLID_185_" class="st17" d="M152.66,293.96c0,1.18-0.95,2.13-2.13,2.13h-3.34c-1.17,0-2.13-0.95-2.13-2.13l0,0
		c0-1.17,0.95-2.13,2.13-2.13h3.34C151.71,291.84,152.66,292.79,152.66,293.96L152.66,293.96L152.66,293.96z"/>
	<path id="XMLID_183_" class="st17" d="M152.74,301.85c0,0.9-0.72,1.62-1.62,1.62h-2.54c-0.89,0-1.62-0.73-1.62-1.62l0,0
		c0-0.89,0.73-1.62,1.62-1.62h2.54C152.01,300.23,152.74,300.95,152.74,301.85L152.74,301.85L152.74,301.85z"/>
	<path id="XMLID_182_" class="st13" d="M181.28,299.81c0,6.32,5.13,11.45,11.45,11.45c6.32,0,11.45-5.13,11.45-11.45
		c0-6.33-5.13-11.45-11.45-11.45C186.4,288.36,181.28,293.49,181.28,299.81L181.28,299.81z"/>
	<path id="XMLID_179_" class="st11" d="M176.4,307.38c-6.22,0-11.28,5.06-11.28,11.28c0,6.22,5.06,11.28,11.28,11.28
		c6.22,0,11.28-5.06,11.28-11.28C187.69,312.44,182.62,307.38,176.4,307.38L176.4,307.38L176.4,307.38z M176.4,311.28
		c4.07,0,7.37,3.3,7.37,7.37c0,4.07-3.3,7.37-7.37,7.37c-4.07,0-7.37-3.3-7.37-7.37C169.03,314.59,172.33,311.28,176.4,311.28
		L176.4,311.28L176.4,311.28z"/>
	<path id="XMLID_178_" class="st17" d="M166.23,293.96c0,1.18,0.95,2.13,2.13,2.13h3.34c1.17,0,2.13-0.95,2.13-2.13l0,0
		c0-1.17-0.95-2.13-2.13-2.13h-3.34C167.18,291.84,166.23,292.79,166.23,293.96L166.23,293.96L166.23,293.96z"/>
	<path id="XMLID_177_" class="st17" d="M166.16,301.85c0,0.9,0.72,1.62,1.62,1.62h2.54c0.89,0,1.62-0.73,1.62-1.62l0,0
		c0-0.89-0.73-1.62-1.62-1.62h-2.54C166.88,300.23,166.16,300.95,166.16,301.85L166.16,301.85L166.16,301.85z"/>
	<path id="XMLID_176_" class="st15" d="M195.77,293.93c0,1.68-1.36,3.04-3.04,3.04s-3.04-1.36-3.04-3.04s1.36-3.04,3.04-3.04
		S195.77,292.25,195.77,293.93L195.77,293.93z"/>
	<path id="XMLID_175_" class="st15" d="M195.77,306.53c0,1.68-1.36,3.04-3.04,3.04s-3.04-1.36-3.04-3.04c0-1.68,1.36-3.04,3.04-3.04
		S195.77,304.85,195.77,306.53L195.77,306.53z"/>
	<path id="XMLID_174_" class="st15" d="M199.02,303.27c-1.68,0-3.04-1.36-3.04-3.04c0-1.68,1.36-3.04,3.04-3.04
		c1.68,0,3.04,1.36,3.04,3.04C202.07,301.91,200.7,303.27,199.02,303.27L199.02,303.27z"/>
	<path id="XMLID_173_" class="st15" d="M186.43,303.27c-1.68,0-3.04-1.36-3.04-3.04c0-1.68,1.36-3.04,3.04-3.04s3.04,1.36,3.04,3.04
		C189.47,301.91,188.11,303.27,186.43,303.27L186.43,303.27z"/>
	<path id="XMLID_172_" class="st16" d="M195.5,293.74c0,1.57-1.33,2.85-2.97,2.85c-1.64,0-2.97-1.28-2.97-2.85
		c0-1.57,1.33-2.85,2.97-2.85C194.17,290.89,195.5,292.17,195.5,293.74L195.5,293.74z"/>
	<path id="XMLID_171_" class="st16" d="M195.5,305.54c0,1.57-1.33,2.85-2.97,2.85c-1.64,0-2.97-1.28-2.97-2.85
		c0-1.57,1.33-2.85,2.97-2.85C194.17,302.69,195.5,303.97,195.5,305.54L195.5,305.54z"/>
	<path id="XMLID_170_" class="st16" d="M198.68,302.49c-1.64,0-2.97-1.27-2.97-2.85c0-1.57,1.33-2.85,2.97-2.85
		c1.64,0,2.97,1.27,2.97,2.85C201.66,301.22,200.32,302.49,198.68,302.49L198.68,302.49z"/>
	<path id="XMLID_169_" class="st16" d="M186.37,302.49c-1.64,0-2.97-1.27-2.97-2.85c0-1.57,1.33-2.85,2.97-2.85
		c1.64,0,2.97,1.27,2.97,2.85C189.34,301.22,188.01,302.49,186.37,302.49L186.37,302.49z"/>
	<path id="XMLID_166_" class="st11" d="M192.92,282.29c-9.66,0-17.52,7.86-17.52,17.52c0,9.66,7.86,17.52,17.52,17.52
		c9.66,0,17.52-7.86,17.52-17.52C210.44,290.15,202.58,282.29,192.92,282.29L192.92,282.29L192.92,282.29z M194.02,289.46
		c6.32,0,10.35,4.03,10.35,10.36c0,6.32-5.13,11.45-11.45,11.45c-6.32,0-10.36-4.03-10.36-10.36
		C182.57,294.58,187.69,289.46,194.02,289.46L194.02,289.46L194.02,289.46z"/>
	<path id="XMLID_163_" class="st12" d="M192.26,282.29c-9.29,0-16.85,7.24-16.85,16.14c0,8.9,7.56,16.14,16.85,16.14
		c9.29,0,16.85-7.24,16.85-16.14C209.11,289.54,201.55,282.29,192.26,282.29L192.26,282.29L192.26,282.29z M192.26,287.89
		c6.08,0,11.01,4.72,11.01,10.55c0,5.83-4.93,10.55-11.01,10.55c-6.08,0-11.02-4.72-11.02-10.55
		C181.24,292.61,186.17,287.89,192.26,287.89L192.26,287.89L192.26,287.89z"/>
	<path id="XMLID_160_" class="st12" d="M176.58,307.15c-6.03,0-10.94,4.91-10.94,10.94c0,6.04,4.91,10.94,10.94,10.94
		c6.03,0,10.94-4.91,10.94-10.94C187.52,312.06,182.61,307.15,176.58,307.15L176.58,307.15L176.58,307.15z M176.58,310.94
		c3.95,0,7.15,3.2,7.15,7.15c0,3.95-3.2,7.15-7.15,7.15c-3.95,0-7.15-3.2-7.15-7.15C169.42,314.14,172.63,310.94,176.58,310.94
		L176.58,310.94L176.58,310.94z"/>
	<path id="XMLID_159_" class="st10" d="M184.19,318.36c0,4.2-3.41,7.62-7.61,7.62c-4.21,0-7.62-3.41-7.62-7.62
		c0-4.2,3.41-7.61,7.62-7.61C180.78,310.75,184.19,314.16,184.19,318.36L184.19,318.36z"/>
	<path id="XMLID_158_" class="st14" d="M183.19,317.48c0,3.72-3.19,6.74-7.11,6.74c-3.93,0-7.11-3.02-7.11-6.74
		c0-3.72,3.18-6.74,7.11-6.74C180,310.75,183.19,313.76,183.19,317.48L183.19,317.48z"/>
</g>
<g id="XMLID_221_">
	<path id="XMLID_219_" class="st18" d="M146.53,390.7v16.53h-1.96v6.46c0,1.08,0.88,1.96,1.96,1.96c1.08,0,1.96-0.88,1.96-1.96
		v-21.03C148.49,391.57,147.61,390.7,146.53,390.7L146.53,390.7z"/>
	<path id="XMLID_218_" class="st19" d="M146.53,390.7c-1.08,0-1.96,0.88-1.96,1.96v14.57h1.96V390.7L146.53,390.7z"/>
	<polygon id="XMLID_217_" class="st20" points="150.71,397.02 146.53,397.02 146.53,405.39 150.71,405.39 150.71,397.02 	"/>
	<polygon id="XMLID_216_" class="st21" points="142.34,397.02 142.34,405.39 146.53,405.39 146.53,397.02 142.34,397.02 	"/>
	<path id="XMLID_215_" class="st18" d="M159.81,390.7v16.53h-1.96v6.46c0,1.08,0.88,1.96,1.96,1.96c1.08,0,1.96-0.88,1.96-1.96
		v-21.03C161.77,391.57,160.89,390.7,159.81,390.7L159.81,390.7z"/>
	<path id="XMLID_214_" class="st19" d="M159.81,390.7c-1.08,0-1.96,0.88-1.96,1.96v14.57h1.96V390.7L159.81,390.7z"/>
	<polygon id="XMLID_213_" class="st20" points="163.99,397.02 159.81,397.02 159.81,405.39 163.99,405.39 163.99,397.02 	"/>
	<polygon id="XMLID_212_" class="st21" points="155.62,397.02 155.62,405.39 159.81,405.39 159.81,397.02 155.62,397.02 	"/>
	<path id="XMLID_211_" class="st18" d="M172.21,390.7v16.53h-1.96v6.46c0,1.08,0.88,1.96,1.96,1.96c1.08,0,1.96-0.88,1.96-1.96
		v-21.03C174.16,391.57,173.29,390.7,172.21,390.7L172.21,390.7z"/>
	<path id="XMLID_156_" class="st19" d="M172.21,390.7c-1.08,0-1.96,0.88-1.96,1.96v14.57h1.96V390.7L172.21,390.7z"/>
	<polygon id="XMLID_155_" class="st20" points="176.39,397.02 172.21,397.02 172.21,405.39 176.39,405.39 176.39,397.02 	"/>
	<polygon id="XMLID_154_" class="st21" points="168.02,397.02 168.02,405.39 172.21,405.39 172.21,397.02 168.02,397.02 	"/>
	<path id="XMLID_153_" class="st18" d="M146.53,481.16v-16.53h-1.96v-6.46c0-1.08,0.88-1.96,1.96-1.96c1.08,0,1.96,0.88,1.96,1.96
		v21.03C148.49,480.28,147.61,481.16,146.53,481.16L146.53,481.16z"/>
	<path id="XMLID_141_" class="st19" d="M146.53,481.16c-1.08,0-1.96-0.88-1.96-1.96v-14.57h1.96V481.16L146.53,481.16z"/>
	<polygon id="XMLID_140_" class="st20" points="150.71,474.83 146.53,474.83 146.53,466.46 150.71,466.46 150.71,474.83 	"/>
	<polygon id="XMLID_139_" class="st21" points="142.34,474.83 142.34,466.46 146.53,466.46 146.53,474.83 142.34,474.83 	"/>
	<path id="XMLID_138_" class="st18" d="M159.81,481.16v-16.53h-1.96v-6.46c0-1.08,0.88-1.96,1.96-1.96c1.08,0,1.96,0.88,1.96,1.96
		v21.03C161.77,480.28,160.89,481.16,159.81,481.16L159.81,481.16z"/>
	<path id="XMLID_137_" class="st19" d="M159.81,481.16c-1.08,0-1.96-0.88-1.96-1.96v-14.57h1.96V481.16L159.81,481.16z"/>
	<polygon id="XMLID_136_" class="st20" points="163.99,474.83 159.81,474.83 159.81,466.46 163.99,466.46 163.99,474.83 	"/>
	<polygon id="XMLID_135_" class="st21" points="155.62,474.83 155.62,466.46 159.81,466.46 159.81,474.83 155.62,474.83 	"/>
	<path id="XMLID_134_" class="st18" d="M172.21,481.16v-16.53h-1.96v-6.46c0-1.08,0.88-1.96,1.96-1.96c1.08,0,1.96,0.88,1.96,1.96
		v21.03C174.16,480.28,173.29,481.16,172.21,481.16L172.21,481.16z"/>
	<path id="XMLID_133_" class="st19" d="M172.21,481.16c-1.08,0-1.96-0.88-1.96-1.96v-14.57h1.96V481.16L172.21,481.16z"/>
	<polygon id="XMLID_132_" class="st20" points="176.39,474.83 172.21,474.83 172.21,466.46 176.39,466.46 176.39,474.83 	"/>
	<polygon id="XMLID_131_" class="st21" points="168.02,474.83 168.02,466.46 172.21,466.46 172.21,474.83 168.02,474.83 	"/>
	<path id="XMLID_130_" class="st18" d="M204.6,423.09h-16.53v-1.96h-6.46c-1.08,0-1.96,0.88-1.96,1.96c0,1.08,0.88,1.96,1.96,1.96
		h21.03C203.72,425.05,204.6,424.17,204.6,423.09L204.6,423.09z"/>
	<path id="XMLID_129_" class="st19" d="M204.6,423.09c0-1.08-0.88-1.96-1.96-1.96h-14.57v1.96H204.6L204.6,423.09z"/>
	<polygon id="XMLID_128_" class="st22" points="198.27,427.27 198.27,423.09 189.9,423.09 189.9,427.27 198.27,427.27 	"/>
	<polygon id="XMLID_127_" class="st23" points="198.27,418.9 189.9,418.9 189.9,423.09 198.27,423.09 198.27,418.9 	"/>
	<path id="XMLID_126_" class="st18" d="M204.6,436.37h-16.53v-1.96h-6.46c-1.08,0-1.96,0.88-1.96,1.96s0.88,1.96,1.96,1.96h21.03
		C203.72,438.33,204.6,437.45,204.6,436.37L204.6,436.37z"/>
	<path id="XMLID_125_" class="st19" d="M204.6,436.37c0-1.08-0.88-1.96-1.96-1.96h-14.57v1.96H204.6L204.6,436.37z"/>
	<polygon id="XMLID_124_" class="st22" points="198.27,440.56 198.27,436.37 189.9,436.37 189.9,440.56 198.27,440.56 	"/>
	<polygon id="XMLID_123_" class="st23" points="198.27,432.19 189.9,432.19 189.9,436.37 198.27,436.37 198.27,432.19 	"/>
	<path id="XMLID_122_" class="st18" d="M204.6,448.77h-16.53v-1.96h-6.46c-1.08,0-1.96,0.88-1.96,1.96c0,1.08,0.88,1.96,1.96,1.96
		h21.03C203.72,450.72,204.6,449.85,204.6,448.77L204.6,448.77z"/>
	<path id="XMLID_121_" class="st19" d="M204.6,448.77c0-1.08-0.88-1.96-1.96-1.96h-14.57v1.96H204.6L204.6,448.77z"/>
	<polygon id="XMLID_120_" class="st22" points="198.27,452.95 198.27,448.77 189.9,448.77 189.9,452.95 198.27,452.95 	"/>
	<polygon id="XMLID_119_" class="st23" points="198.27,444.58 189.9,444.58 189.9,448.77 198.27,448.77 198.27,444.58 	"/>
	<path id="XMLID_118_" class="st18" d="M114.13,423.09h16.53v-1.96h6.46c1.08,0,1.96,0.88,1.96,1.96c0,1.08-0.88,1.96-1.96,1.96
		h-21.03C115.01,425.05,114.13,424.17,114.13,423.09L114.13,423.09z"/>
	<path id="XMLID_117_" class="st19" d="M114.13,423.09c0-1.08,0.88-1.96,1.96-1.96h14.57v1.96H114.13L114.13,423.09z"/>
	<polygon id="XMLID_116_" class="st22" points="120.46,427.27 120.46,423.09 128.83,423.09 128.83,427.27 120.46,427.27 	"/>
	<polygon id="XMLID_115_" class="st23" points="120.46,418.9 128.83,418.9 128.83,423.09 120.46,423.09 120.46,418.9 	"/>
	<path id="XMLID_114_" class="st18" d="M114.13,436.37h16.53v-1.96h6.46c1.08,0,1.96,0.88,1.96,1.96s-0.88,1.96-1.96,1.96h-21.03
		C115.01,438.33,114.13,437.45,114.13,436.37L114.13,436.37z"/>
	<path id="XMLID_113_" class="st19" d="M114.13,436.37c0-1.08,0.88-1.96,1.96-1.96h14.57v1.96H114.13L114.13,436.37z"/>
	<polygon id="XMLID_112_" class="st22" points="120.46,440.56 120.46,436.37 128.83,436.37 128.83,440.56 120.46,440.56 	"/>
	<polygon id="XMLID_103_" class="st23" points="120.46,432.19 128.83,432.19 128.83,436.37 120.46,436.37 120.46,432.19 	"/>
	<path id="XMLID_101_" class="st18" d="M114.13,448.77h16.53v-1.96h6.46c1.08,0,1.96,0.88,1.96,1.96c0,1.08-0.88,1.96-1.96,1.96
		h-21.03C115.01,450.72,114.13,449.85,114.13,448.77L114.13,448.77z"/>
	<path id="XMLID_98_" class="st19" d="M114.13,448.77c0-1.08,0.88-1.96,1.96-1.96h14.57v1.96H114.13L114.13,448.77z"/>
	<polygon id="XMLID_96_" class="st22" points="120.46,452.95 120.46,448.77 128.83,448.77 128.83,452.95 120.46,452.95 	"/>
	<polygon id="XMLID_95_" class="st23" points="120.46,444.58 128.83,444.58 128.83,448.77 120.46,448.77 120.46,444.58 	"/>
	<polygon id="XMLID_93_" class="st24" points="128.69,404.62 128.69,457.8 181.87,404.62 128.69,404.62 	"/>
	<polygon id="XMLID_91_" class="st21" points="190.93,466.86 190.93,404.62 181.87,404.62 128.69,457.8 128.69,466.86 
		190.93,466.86 	"/>
	<polygon id="XMLID_90_" class="st13" points="137.44,414.68 137.44,449.05 171.82,414.68 137.44,414.68 	"/>
	<polygon id="XMLID_75_" class="st25" points="180.87,458.1 180.87,414.68 171.82,414.68 137.44,449.05 137.44,458.1 180.87,458.1 	
		"/>
</g>
<g id="XMLID_252_">
	<path id="XMLID_250_" class="st26" d="M447.36,545.45c-4.26,0-7.71,3.45-7.71,7.71v57.02c0,4.25,3.45,7.71,7.71,7.71h57.02
		c4.26,0,7.71-3.45,7.71-7.71v-57.02c0-4.26-3.45-7.71-7.71-7.71H447.36L447.36,545.45z"/>
	<polygon id="XMLID_249_" class="st27" points="446.07,611.47 505.67,611.47 505.67,551.87 446.07,551.87 446.07,611.47 	"/>
	<polygon id="XMLID_248_" class="st26" points="448.9,608.65 502.85,608.65 502.85,554.69 448.9,554.69 448.9,608.65 	"/>
	<polygon id="XMLID_247_" class="st26" points="451.86,541.47 460.1,541.47 460.1,533.24 451.86,533.24 451.86,541.47 	"/>
	<polygon id="XMLID_246_" class="st26" points="465.12,541.47 473.36,541.47 473.36,533.24 465.12,533.24 465.12,541.47 	"/>
	<polygon id="XMLID_245_" class="st26" points="486.62,541.47 486.62,533.24 478.38,533.24 478.38,541.47 486.62,541.47 	"/>
	<polygon id="XMLID_244_" class="st26" points="491.64,541.47 499.88,541.47 499.88,533.24 491.64,533.24 491.64,541.47 	"/>
	<polygon id="XMLID_243_" class="st26" points="451.86,630.22 460.1,630.22 460.1,621.98 451.86,621.98 451.86,630.22 	"/>
	<polygon id="XMLID_240_" class="st26" points="465.12,630.22 473.36,630.22 473.36,621.98 465.12,621.98 465.12,630.22 	"/>
	<polygon id="XMLID_236_" class="st26" points="486.62,630.22 486.62,621.98 478.38,621.98 478.38,630.22 486.62,630.22 	"/>
	<polygon id="XMLID_234_" class="st26" points="491.64,630.22 499.88,630.22 499.88,621.98 491.64,621.98 491.64,630.22 	"/>
	<polygon id="XMLID_233_" class="st26" points="516.13,565.96 524.37,565.96 524.37,557.72 516.13,557.72 516.13,565.96 	"/>
	<polygon id="XMLID_231_" class="st26" points="516.13,579.22 524.37,579.22 524.37,570.98 516.13,570.98 516.13,579.22 	"/>
	<polygon id="XMLID_230_" class="st26" points="516.13,592.48 524.37,592.48 524.37,584.24 516.13,584.24 516.13,592.48 	"/>
	<polygon id="XMLID_229_" class="st26" points="516.13,605.74 524.37,605.74 524.37,597.5 516.13,597.5 516.13,605.74 	"/>
	<polygon id="XMLID_228_" class="st26" points="435.62,565.96 435.62,557.72 427.38,557.72 427.38,565.96 435.62,565.96 	"/>
	<polygon id="XMLID_227_" class="st26" points="435.62,579.22 435.62,570.98 427.38,570.98 427.38,579.22 435.62,579.22 	"/>
	<polygon id="XMLID_226_" class="st26" points="435.62,592.48 435.62,584.24 427.38,584.24 427.38,592.48 435.62,592.48 	"/>
	<polygon id="XMLID_225_" class="st26" points="435.62,605.74 435.62,597.5 427.38,597.5 427.38,605.74 435.62,605.74 	"/>
	<path id="XMLID_224_" class="st27" d="M466.39,576.53l1.09-1.61c-4.15-3.96-13.39-2.2-13.39,5.82c0,8.01,9.04,10.32,13.78,5.58
		l-1.15-1.54c-1.24,1.24-2.99,2-4.71,2c-3.58,0-5.71-2.79-5.71-6.06C456.3,574.55,462.95,573.41,466.39,576.53L466.39,576.53z"/>
	<path id="XMLID_254_" class="st27" d="M475.85,580.95h-3.13v-5.93h3.15C479.88,575.03,479.82,580.95,475.85,580.95L475.85,580.95z
		 M470.57,573.16v15.32h2.15v-5.66h3.47c6.37,0,6.47-9.66,0-9.66H470.57L470.57,573.16z"/>
	<path id="XMLID_220_" class="st27" d="M483.55,573.16v9.9c0,7.6,12.05,7.66,12.05,0v-9.9h-2.15v9.85c0,5.07-7.75,5.04-7.75,0.02
		v-9.88H483.55L483.55,573.16z"/>
</g>
<g id="XMLID_262_">
	<path id="XMLID_260_" class="st28" d="M357.49,267.28v60.5c0,1.15-0.93,2.07-2.08,2.07h-90.29c-1.14,0-2.07-0.92-2.07-2.07v-60.5
		c0-1.14,0.92-2.08,2.07-2.08h90.29C356.55,265.2,357.49,266.14,357.49,267.28L357.49,267.28z"/>
	<path id="XMLID_268_" class="st29" d="M357.48,327.78c0,1.14-0.93,2.08-2.08,2.08h-90.28c-1.14,0-2.08-0.93-2.08-2.08v-60.5
		c0-1.14,0.93-2.08,2.08-2.08h90.28c1.14,0,2.08,0.93,2.08,2.08V327.78L357.48,327.78z M355.41,260.18h-90.28
		c-3.91,0-7.1,3.18-7.1,7.1v60.5c0,3.91,3.19,7.1,7.1,7.1h90.28c3.92,0,7.1-3.18,7.1-7.1v-60.5
		C362.51,263.37,359.32,260.18,355.41,260.18L355.41,260.18z"/>
	<path id="XMLID_257_" class="st30" d="M324.29,265.2l9.54,0l-35.08,64.64h-33.63c-1.14,0-2.07-0.92-2.07-2.07V316L324.29,265.2
		L324.29,265.2z"/>
	<path id="XMLID_256_" class="st31" d="M345.82,332.51c0,0.83-0.67,1.51-1.51,1.51c-0.83,0-1.51-0.68-1.51-1.51
		c0-0.83,0.68-1.51,1.51-1.51C345.14,331,345.82,331.68,345.82,332.51L345.82,332.51z"/>
	<polygon id="XMLID_255_" class="st29" points="319.7,342.8 301.11,342.8 303.12,338.84 305.13,334.88 315.68,334.88 317.69,338.84 
		319.7,342.8 	"/>
	<path id="XMLID_253_" class="st32" d="M324.22,346.07h-26.87v-1.26c0-1.11,0.9-2.01,2.01-2.01h22.85c1.11,0,2.01,0.9,2.01,2.01
		V346.07L324.22,346.07z"/>
	<polygon id="XMLID_251_" class="st33" points="317.69,338.84 303.12,338.84 305.13,334.88 315.68,334.88 317.69,338.84 	"/>
</g>
<g id="XMLID_296_">
	<path id="XMLID_294_" class="st27" d="M443.57,348.79c1.66,0,3.02-1.37,3.02-3.07V242.74c0-1.69-1.35-3.07-3.02-3.07h-34.23
		c-1.67,0-3.02,1.38-3.02,3.07v102.97c0,1.7,1.35,3.07,3.02,3.07H443.57L443.57,348.79z"/>
	<polygon id="XMLID_293_" class="st34" points="424.73,249.71 424.73,328.22 428.17,328.22 428.17,249.71 424.73,249.71 	"/>
	<path id="XMLID_292_" class="st35" d="M431.69,336.81c0-3.05-2.43-5.53-5.43-5.53s-5.43,2.48-5.43,5.53c0,3.05,2.43,5.53,5.43,5.53
		S431.69,339.87,431.69,336.81L431.69,336.81z"/>
	<path id="XMLID_291_" class="st13" d="M428.95,335.58c0-0.84-0.67-1.51-1.49-1.51c-0.82,0-1.49,0.68-1.49,1.51
		c0,0.84,0.67,1.51,1.49,1.51C428.29,337.1,428.95,336.42,428.95,335.58L428.95,335.58z"/>
	<path id="XMLID_290_" class="st27" d="M500.77,289.53h4.83c3.05,0,5.59-2.49,5.92-5.8l2.52-17.51c0.94-4.74-1.73-8.54-4.78-10.32
		c-3.64-2.11-8.55-1.38-12.53-1.38h-14.77c-4.47,0-8.93-0.26-13.56-0.01c-5.14,0.27-10.56,4.72-9.64,11.7l2.52,17.51
		c0.31,3.3,1.67,5.8,4.7,5.8h5.74c3.84,0,3.07-4.82,3.08-8.56c0.01-3.46,2.58-6.26,5.76-6.26h11.39c3.17,0,5.76,2.81,5.76,6.28
		C497.71,284.72,496.92,289.53,500.77,289.53L500.77,289.53z"/>
	<path id="XMLID_289_" class="st36" d="M506.93,266.39c0-3.73-2.97-6.76-6.64-6.76s-6.64,3.02-6.64,6.76c0,3.73,2.97,6.76,6.64,6.76
		S506.93,270.12,506.93,266.39L506.93,266.39z"/>
	<path id="XMLID_288_" class="st36" d="M479.56,266.39c0-3.73-2.97-6.76-6.64-6.76c-3.67,0-6.64,3.02-6.64,6.76
		c0,3.73,2.97,6.76,6.64,6.76C476.59,273.15,479.56,270.12,479.56,266.39L479.56,266.39z"/>
	<polygon id="XMLID_287_" class="st34" points="471.42,260.8 471.42,264.87 467.43,264.87 467.43,267.92 471.42,267.92 
		471.42,271.99 474.42,271.99 474.42,267.92 478.42,267.92 478.42,264.87 474.42,264.87 474.42,260.8 471.42,260.8 	"/>
	<path id="XMLID_318_" class="st37" d="M505.56,289.53h-4.83c0,0-0.01,0-0.01,0c0.02,0,0.04,0,0.06,0H505.56L505.56,289.53
		L505.56,289.53z M498.88,288.92c-0.56-0.46-0.9-1.19-1.07-2.21C497.97,287.64,498.29,288.41,498.88,288.92L498.88,288.92z
		 M497.64,284.67c-0.01-1.04,0.03-2.33,0.06-3.68C497.71,282.17,497.63,283.46,497.64,284.67L497.64,284.67z M511.52,283.74
		C511.52,283.74,511.52,283.73,511.52,283.74l2.52-17.52c0.59-3-0.25-5.61-1.72-7.58c1.49,1.97,2.37,4.59,1.72,7.58L511.52,283.74
		C511.52,283.73,511.52,283.74,511.52,283.74L511.52,283.74z M495.28,275.86c-0.95-0.73-2.12-1.16-3.38-1.16h-5.51h5.55
		C493.19,274.7,494.34,275.13,495.28,275.86L495.28,275.86z M509.26,255.9c-2.14-1.24-4.73-1.5-7.31-1.5c-1.8,0-3.59,0.12-5.23,0.12
		h-0.04c1.69,0,3.54-0.14,5.4-0.14C504.62,254.38,507.15,254.65,509.26,255.9L509.26,255.9z"/>
	<path id="XMLID_315_" class="st38" d="M505.56,289.53h-4.79c-0.02,0-0.04,0-0.06,0c-0.77-0.02-1.37-0.22-1.84-0.61
		c-0.59-0.5-0.91-1.28-1.07-2.21c-0.03-0.19-0.06-0.4-0.08-0.61c-0.05-0.38-0.08-0.87-0.09-1.43c-0.01-1.21,0.06-2.49,0.06-3.68
		c0-0.04,0-0.09,0-0.13c-0.04-2.08-0.99-3.89-2.43-5c-0.94-0.73-2.09-1.16-3.33-1.16h-5.55v-20.18h10.29l0,0h0.04
		c1.64,0,3.43-0.12,5.23-0.12c2.58,0,5.16,0.26,7.31,1.5l0,0c1.11,0.66,2.19,1.59,3.06,2.73c1.47,1.97,2.32,4.59,1.72,7.58
		l-2.52,17.51c0,0,0,0.01,0,0.01C511.19,287.04,508.6,289.53,505.56,289.53L505.56,289.53z M500.29,259.64
		c-3.67,0-6.64,3.02-6.64,6.76c0,3.73,2.97,6.76,6.64,6.76s6.64-3.02,6.64-6.76C506.93,262.66,503.96,259.64,500.29,259.64
		L500.29,259.64z"/>
	<path id="XMLID_278_" class="st39" d="M500.29,273.15c-3.67,0-6.64-3.02-6.64-6.76c0-3.73,2.97-6.76,6.64-6.76s6.64,3.02,6.64,6.76
		C506.93,270.12,503.96,273.15,500.29,273.15L500.29,273.15z"/>
	<path id="XMLID_277_" class="st38" d="M443.57,348.79h-17.12v-6.45c2.92-0.1,5.25-2.53,5.25-5.52c0-2.99-2.33-5.42-5.25-5.52v-3.07
		h1.73v-78.51h-1.73v-10.03h17.12c1.66,0,3.02,1.38,3.02,3.07v102.97C446.58,347.41,445.23,348.79,443.57,348.79L443.57,348.79z"/>
	<polygon id="XMLID_276_" class="st40" points="428.17,328.22 426.44,328.22 426.44,249.71 428.17,249.71 428.17,328.22 	"/>
	<path id="XMLID_275_" class="st41" d="M426.44,342.34v-5.65c0.27,0.26,0.63,0.41,1.02,0.41c0.82,0,1.49-0.68,1.49-1.51
		c0-0.84-0.67-1.51-1.49-1.51c-0.4,0-0.76,0.16-1.02,0.41v-3.19c2.92,0.1,5.25,2.53,5.25,5.52
		C431.69,339.8,429.36,342.24,426.44,342.34L426.44,342.34z"/>
	<path id="XMLID_274_" class="st37" d="M427.47,337.1c-0.4,0-0.76-0.16-1.02-0.41v-2.2c0.27-0.26,0.63-0.41,1.02-0.41
		c0.82,0,1.49,0.68,1.49,1.51C428.95,336.42,428.29,337.1,427.47,337.1L427.47,337.1z"/>
	<path id="XMLID_273_" class="st27" d="M500.77,333.74h4.83c3.05,0,5.59-2.49,5.92-5.8l2.52-17.51c0.94-4.74-1.73-8.54-4.78-10.32
		c-3.64-2.11-8.55-1.38-12.53-1.38h-14.77c-4.47,0-8.93-0.26-13.56-0.01c-5.14,0.27-10.56,4.72-9.64,11.7l2.52,17.51
		c0.31,3.3,1.67,5.8,4.7,5.8h5.74c3.84,0,3.07-4.82,3.08-8.56c0.01-3.46,2.58-6.26,5.76-6.26h11.39c3.17,0,5.76,2.81,5.76,6.27
		C497.71,328.94,496.92,333.74,500.77,333.74L500.77,333.74z"/>
	<path id="XMLID_272_" class="st36" d="M506.93,310.61c0-3.73-2.97-6.75-6.64-6.75s-6.64,3.02-6.64,6.75c0,3.73,2.97,6.76,6.64,6.76
		S506.93,314.34,506.93,310.61L506.93,310.61z"/>
	<path id="XMLID_271_" class="st36" d="M479.56,310.61c0-3.73-2.97-6.75-6.64-6.75c-3.67,0-6.64,3.02-6.64,6.75
		c0,3.73,2.97,6.76,6.64,6.76C476.59,317.36,479.56,314.34,479.56,310.61L479.56,310.61z"/>
	<polygon id="XMLID_270_" class="st34" points="471.42,305.02 471.42,309.09 467.43,309.09 467.43,312.13 471.42,312.13 
		471.42,316.2 474.42,316.2 474.42,312.13 478.42,312.13 478.42,309.09 474.42,309.09 474.42,305.02 471.42,305.02 	"/>
	<path id="XMLID_301_" class="st37" d="M500.68,333.74c-0.47,0-0.89-0.09-1.24-0.26c0.37,0.17,0.81,0.26,1.34,0.26h4.79l0,0h-4.83
		C500.71,333.74,500.69,333.74,500.68,333.74L500.68,333.74z M498.52,332.75c-0.44-0.56-0.71-1.34-0.78-2.26
		C497.85,331.39,498.08,332.18,498.52,332.75L498.52,332.75z M511.52,327.95C511.52,327.95,511.52,327.95,511.52,327.95l2.52-17.52
		c0.94-4.74-1.73-8.54-4.78-10.32c-2.14-1.24-4.73-1.5-7.31-1.5c-1.8,0-3.59,0.12-5.23,0.12h-0.04c1.68,0,3.52-0.13,5.36-0.13
		c2.53,0,5.06,0.25,7.16,1.47c3.13,1.81,5.86,5.62,4.84,10.36L511.52,327.95C511.52,327.95,511.52,327.95,511.52,327.95
		L511.52,327.95z M497.51,323.57c-0.67-2.65-2.92-4.65-5.61-4.65h-5.51h5.55C494.61,318.92,496.85,320.89,497.51,323.57
		L497.51,323.57z"/>
	<path id="XMLID_298_" class="st38" d="M505.56,333.74h-4.79c-0.53,0-0.98-0.09-1.34-0.26c-0.36-0.17-0.66-0.42-0.91-0.73
		c-0.44-0.58-0.67-1.36-0.78-2.26c0-0.06-0.01-0.12-0.01-0.18c-0.13-1.19-0.03-3.22-0.02-5.24c-0.01-0.52-0.08-1.02-0.2-1.51
		c-0.66-2.68-2.9-4.65-5.56-4.65h-5.55v-20.18h10.29l0,0h0.04c1.64,0,3.43-0.12,5.23-0.12c2.58,0,5.16,0.26,7.31,1.5
		c3.05,1.78,5.72,5.58,4.78,10.32l-2.52,17.51c0,0,0,0.01,0,0.01C511.19,331.25,508.6,333.74,505.56,333.74L505.56,333.74z
		 M500.29,303.85c-3.67,0-6.64,3.02-6.64,6.75c0,3.73,2.97,6.76,6.64,6.76s6.64-3.02,6.64-6.76
		C506.93,306.88,503.96,303.85,500.29,303.85L500.29,303.85z"/>
	<path id="XMLID_261_" class="st39" d="M500.29,317.36c-3.67,0-6.64-3.02-6.64-6.76c0-3.73,2.97-6.75,6.64-6.75s6.64,3.02,6.64,6.75
		C506.93,314.34,503.96,317.36,500.29,317.36L500.29,317.36z"/>
</g>
<g id="XMLID_308_">
	<path id="XMLID_306_" class="st42" d="M318.81,403.39c-6.23-4.27-13.66-6.65-21.32-6.7v0.03c-7.65,0.06-15.08,2.44-21.3,6.7
		c-3.73,2.56-7.03,5.8-9.69,9.62c0.57,0.68,1.28,1.25,2.11,1.67l1.44,0.54c2.16,0.55,4.38,0,6.02-1.35c0.3-0.3,0.6-0.6,0.91-0.9
		c5.51-5.24,12.88-8.24,20.54-8.31v-0.02c7.65,0.07,15,3.07,20.51,8.3c0.31,0.29,0.61,0.59,0.9,0.9c1.64,1.34,3.87,1.89,6.02,1.35
		l1.44-0.54c0.83-0.42,1.54-1,2.11-1.67C325.84,409.19,322.55,405.95,318.81,403.39L318.81,403.39z"/>
	<path id="XMLID_305_" class="st43" d="M270.31,426.66c0.07-0.01,0.14-0.02,0.2-0.03l8.61,35.48c-0.07,0.02-0.13,0.04-0.2,0.06
		c-6.88,1.67-14.39-4.92-16.77-14.73C259.77,437.63,263.43,428.33,270.31,426.66L270.31,426.66z"/>
	<path id="XMLID_304_" class="st44" d="M270.51,426.64c1.6-0.38,3.35,1.15,3.9,3.43l6.6,27.21c0.55,2.28-0.3,4.45-1.89,4.84
		L270.51,426.64L270.51,426.64z"/>
	<path id="XMLID_303_" class="st43" d="M325,426.66c-0.07-0.01-0.14-0.02-0.2-0.03l-8.6,35.48c0.07,0.02,0.13,0.04,0.19,0.06
		c6.88,1.67,14.39-4.92,16.77-14.73C335.53,437.63,331.88,428.33,325,426.66L325,426.66z"/>
	<path id="XMLID_302_" class="st44" d="M324.8,426.64c-1.6-0.38-3.35,1.15-3.9,3.43l-6.6,27.21c-0.55,2.28,0.3,4.45,1.89,4.84
		L324.8,426.64L324.8,426.64z"/>
	<path id="XMLID_300_" class="st45" d="M334.83,452.36c-2.51,14.52-16.36,24.29-30.88,21.78c-0.12-0.02-0.24-0.05-0.37-0.07
		l-0.29,1.66c0.12,0.02,0.24,0.05,0.37,0.07c15.43,2.67,30.16-7.72,32.83-23.15c0.03-0.15,0.04-0.31,0.07-0.46l-1.66-0.29
		C334.88,452.05,334.86,452.2,334.83,452.36L334.83,452.36z"/>
	<path id="XMLID_299_" class="st46" d="M310.11,475.85c-0.28,2.73-2.72,4.72-5.45,4.45c-2.73-0.28-4.72-2.72-4.44-5.45
		c0.28-2.74,2.72-4.72,5.45-4.45C308.4,470.67,310.39,473.11,310.11,475.85L310.11,475.85z"/>
	<path id="XMLID_297_" class="st47" d="M338.66,440.88v-10.4c0-0.04,0-0.08,0-0.13c-1.71-21.27-19.76-37.93-41.11-37.93
		c-21.35,0-39.4,16.66-41.11,38v10.24c-1.34,0.68-2.27,2.06-2.27,3.67v4.78c0,2.28,1.85,4.13,4.13,4.13h2.25
		c2.28,0,4.13-1.85,4.13-4.13v-4.78c0-2.28-1.85-4.13-4.13-4.13h-0.9v-9.78c0-0.01,0-0.03,0-0.04c1.62-18.3,17.54-31.56,37.9-31.56
		c20.36,0,36.28,13.26,37.9,31.55c0,0.02,0,0.04,0,0.05v9.78h-1.3c-2.28,0-4.13,1.85-4.13,4.13v4.78c0,2.28,1.85,4.13,4.13,4.13
		h2.25c2.28,0,4.13-1.85,4.13-4.13v-4.78C340.53,442.88,339.78,441.62,338.66,440.88L338.66,440.88z"/>
	<path id="XMLID_295_" class="st48" d="M338.66,440.88v-10.4c0-0.04,0-0.08,0-0.13c-1.07-13.37-8.61-24.91-19.36-31.65l-3.91,3.91
		c11.23,5.2,18.96,15.31,20.06,27.75c0,0.02,0,0.04,0,0.05v9.78h-1.3c-2.28,0-4.13,1.85-4.13,4.13v4.78c0,2.28,1.85,4.13,4.13,4.13
		h2.25c2.28,0,4.13-1.85,4.13-4.13v-4.78C340.53,442.88,339.78,441.62,338.66,440.88L338.66,440.88z"/>
</g>
<g id="XMLID_320_">
	<path id="XMLID_317_" class="st34" d="M492.38,429.96c0-19.35-13.83-35.47-32.15-39.02c0.2-0.36,0.31-0.78,0.31-1.23v-2.04
		c0-1.47-1.18-2.66-2.65-2.66h-10.51c-1.47,0-2.66,1.19-2.66,2.66c0,0.68,0,1.67,0,2.04c0,0.45,0.11,0.87,0.31,1.23
		c-18.32,3.54-32.14,19.66-32.14,39.02c0,17.32,11.08,32.06,26.54,37.49v6.81c-14.88,1.3-25.65,4.74-26.27,8.82h79.07
		c-0.62-4.1-11.45-7.54-26.4-8.83v-6.8C481.29,462.02,492.38,447.28,492.38,429.96L492.38,429.96z"/>
	<path id="XMLID_316_" class="st36" d="M424.66,429.96c0,15.45,12.52,27.97,27.97,27.97c15.45,0,27.97-12.52,27.97-27.97
		c0-15.45-12.52-27.97-27.97-27.97C437.18,401.99,424.66,414.51,424.66,429.96L424.66,429.96z"/>
	<path id="XMLID_314_" class="st27" d="M452.63,405.92c-13.28,0-24.04,10.76-24.04,24.04c0,13.28,10.76,24.04,24.04,24.04
		c13.28,0,24.04-10.76,24.04-24.04C476.67,416.68,465.9,405.92,452.63,405.92L452.63,405.92z"/>
	<path id="XMLID_313_" class="st36" d="M440.36,429.96c0,6.77,5.49,12.27,12.27,12.27c6.77,0,12.27-5.49,12.27-12.27
		c0-6.77-5.49-12.27-12.27-12.27C445.85,417.69,440.36,423.19,440.36,429.96L440.36,429.96z"/>
	<path id="XMLID_312_" class="st13" d="M433.26,418.55c0,2.74,2.22,4.97,4.97,4.97c2.74,0,4.97-2.22,4.97-4.97
		c0-2.74-2.22-4.96-4.97-4.96C435.49,413.59,433.26,415.81,433.26,418.55L433.26,418.55z"/>
	<path id="XMLID_311_" class="st40" d="M492.23,483.08h-39.6v-25.15c15.45,0,27.97-12.52,27.97-27.97
		c0-15.45-12.52-27.97-27.97-27.97V385h5.25c1.47,0,2.65,1.19,2.65,2.66v2.04c0,0.45-0.11,0.87-0.31,1.23l0,0l0,0
		c18.32,3.54,32.15,19.66,32.15,39.02c0,17.32-11.08,32.06-26.54,37.49v6.8l0,0C480.78,475.55,491.61,478.99,492.23,483.08
		L492.23,483.08z"/>
	<path id="XMLID_310_" class="st39" d="M452.63,457.93V454c13.28,0,24.04-10.77,24.04-24.04c0-13.28-10.76-24.04-24.04-24.04v-3.93
		c15.45,0,27.97,12.52,27.97,27.97C480.6,445.41,468.08,457.93,452.63,457.93L452.63,457.93z"/>
	<path id="XMLID_309_" class="st38" d="M452.63,454v-11.77c6.77,0,12.26-5.49,12.26-12.27c0-6.77-5.49-12.26-12.26-12.27v-11.78
		c13.28,0,24.04,10.77,24.04,24.04C476.67,443.24,465.91,454,452.63,454L452.63,454z"/>
	<path id="XMLID_307_" class="st39" d="M452.63,442.23v-24.53c6.77,0,12.26,5.49,12.26,12.27
		C464.89,436.73,459.4,442.22,452.63,442.23L452.63,442.23z"/>
</g>
<g id="XMLID_339_">
	<path id="XMLID_337_" class="st31" d="M147,755.22v3.89h-21.37c-4.59,0-8.04-1.4-10.25-4.16c-1.51-1.88-2.17-4.1-2.42-6.09
		c-0.16-1.21-0.16-2.33-0.1-3.24c0.08-1.32,0.27-2.21,0.29-2.31l1.9,0.42l1.91,0.42c-0.01,0.01-0.03,0.14-0.07,0.35
		c-0.04,0.25-0.1,0.64-0.13,1.11c-0.07,0.87-0.08,2.03,0.12,3.24c0.21,1.27,0.66,2.58,1.54,3.67c1.43,1.78,3.86,2.68,7.2,2.68H147
		L147,755.22z"/>
	<path id="XMLID_336_" class="st31" d="M146.43,755.22c3.34,0,5.77-0.9,7.2-2.69c2.18-2.7,1.72-6.81,1.53-8.02
		c-0.03-0.21-0.06-0.35-0.06-0.35l1.9-0.42l1.9-0.43c0.06,0.28,1.51,6.99-2.22,11.64c-2.21,2.76-5.66,4.16-10.25,4.16h-21.37v-3.9
		H146.43L146.43,755.22z"/>
	<path id="XMLID_335_" class="st49" d="M116.89,748.88h-3.93c-0.16-1.21-0.16-2.33-0.1-3.24h3.9
		C116.7,746.5,116.69,747.66,116.89,748.88L116.89,748.88z"/>
	<path id="XMLID_334_" class="st49" d="M155.17,748.86h3.93c0.16-1.21,0.16-2.33,0.1-3.24h-3.9
		C155.36,746.49,155.37,747.65,155.17,748.86L155.17,748.86z"/>
	<path id="XMLID_333_" class="st50" d="M120.65,702.11h-12.28v-10.7c0-0.39,0.25-0.71,0.55-0.71h11.17c0.31,0,0.55,0.32,0.55,0.71
		V702.11L120.65,702.11z"/>
	<path id="XMLID_332_" class="st29" d="M114.98,694.14v-3.44H114v4.18c0.42,0,0.78,0.23,0.98,0.57c0.1,0.17,0.15,0.36,0.15,0.56
		c0,0.21-0.06,0.4-0.15,0.57c-0.2,0.34-0.56,0.57-0.98,0.57v4.96h0.98v-4.22c0.67-0.35,1.13-1.06,1.13-1.88
		S115.65,694.49,114.98,694.14L114.98,694.14z"/>
	<path id="XMLID_331_" class="st50" d="M167.59,692.81h-20.79v-14.2c0-0.52,0.42-0.94,0.94-0.94h18.91c0.52,0,0.94,0.42,0.94,0.94
		V692.81L167.59,692.81z"/>
	<path id="XMLID_330_" class="st29" d="M157.83,682.24v-4.57h-1.3v5.55c0.55,0,1.04,0.31,1.3,0.75c0.13,0.22,0.2,0.47,0.2,0.75
		s-0.07,0.53-0.2,0.75c-0.26,0.45-0.75,0.75-1.3,0.75v6.58h1.3v-5.6c0.89-0.47,1.5-1.41,1.5-2.49
		C159.33,683.64,158.72,682.71,157.83,682.24L157.83,682.24z"/>
	<polygon id="XMLID_329_" class="st29" points="153.49,686.63 149.51,686.63 149.51,684.44 153.49,684.44 153.49,686.63 	"/>
	<polygon id="XMLID_328_" class="st29" points="164.89,686.63 160.92,686.63 160.92,684.44 164.89,684.44 164.89,686.63 	"/>
	<path id="XMLID_327_" class="st29" d="M110.37,730.61l0.36,3.11l0.22,1.95h1.49c0.47,0,0.86,0.38,0.86,0.86v0.02
		c0,0.47-0.38,0.86-0.86,0.86h-0.62c-0.36,0-0.64,0.31-0.6,0.67l0,0.01c0.04,0.3,0.29,0.53,0.6,0.53h0.82
		c0.47,0,0.86,0.38,0.86,0.86v0.02c0,0.47-0.38,0.86-0.86,0.86h-0.49c-0.36,0-0.64,0.31-0.6,0.67v0.01c0.03,0.3,0.29,0.53,0.6,0.53
		h0.86c0.47,0,0.86,0.38,0.86,0.86v0.02c0,0.47-0.38,0.86-0.86,0.86h-0.53c-0.36,0-0.64,0.31-0.6,0.67l0.08,0.66
		c0.06,0.56,0.54,0.99,1.11,0.99h3.69c0.57,0,1.04-0.42,1.11-0.99l0.08-0.66c0.04-0.36-0.24-0.67-0.6-0.67h-0.53
		c-0.47,0-0.86-0.38-0.86-0.86v-0.02c0-0.48,0.38-0.86,0.86-0.86h0.86c0.31,0,0.56-0.23,0.6-0.53v-0.01
		c0.04-0.36-0.24-0.67-0.6-0.67h-0.5c-0.47,0-0.86-0.38-0.86-0.86v-0.02c0-0.47,0.38-0.86,0.86-0.86h0.83c0.31,0,0.56-0.23,0.6-0.53
		l0-0.01c0.04-0.36-0.24-0.67-0.6-0.67h-0.62c-0.47,0-0.86-0.38-0.86-0.86v-0.02c0-0.47,0.38-0.86,0.86-0.86h1.49l0.22-1.95
		l0.36-3.11H110.37L110.37,730.61z"/>
	<polygon id="XMLID_326_" class="st33" points="119.46,730.61 119.11,733.72 110.73,733.72 110.37,730.61 119.46,730.61 	"/>
	<path id="XMLID_325_" class="st29" d="M152.8,730.61l0.36,3.11l0.22,1.95h1.49c0.47,0,0.86,0.38,0.86,0.86v0.02
		c0,0.47-0.38,0.86-0.86,0.86h-0.62c-0.36,0-0.64,0.31-0.6,0.67l0,0.01c0.03,0.3,0.29,0.53,0.6,0.53h0.82
		c0.47,0,0.86,0.38,0.86,0.86v0.02c0,0.47-0.38,0.86-0.86,0.86h-0.49c-0.36,0-0.64,0.31-0.6,0.67l0,0.01
		c0.03,0.3,0.29,0.53,0.6,0.53h0.86c0.47,0,0.86,0.38,0.86,0.86v0.02c0,0.47-0.38,0.86-0.86,0.86h-0.53c-0.36,0-0.64,0.31-0.6,0.67
		l0.08,0.66c0.07,0.56,0.54,0.99,1.11,0.99h3.69c0.57,0,1.04-0.42,1.11-0.99l0.08-0.66c0.04-0.36-0.24-0.67-0.6-0.67h-0.53
		c-0.47,0-0.86-0.38-0.86-0.86v-0.02c0-0.48,0.38-0.86,0.86-0.86h0.86c0.31,0,0.56-0.23,0.6-0.53l0-0.01
		c0.04-0.36-0.24-0.67-0.6-0.67h-0.5c-0.47,0-0.86-0.38-0.86-0.86v-0.02c0-0.47,0.38-0.86,0.86-0.86h0.83c0.3,0,0.56-0.23,0.6-0.53
		l0-0.01c0.04-0.36-0.24-0.67-0.6-0.67h-0.62c-0.47,0-0.86-0.38-0.86-0.86v-0.02c0-0.47,0.38-0.86,0.86-0.86h1.49l0.22-1.95
		l0.36-3.11H152.8L152.8,730.61z"/>
	<polygon id="XMLID_324_" class="st33" points="161.9,730.61 161.54,733.72 153.16,733.72 152.8,730.61 161.9,730.61 	"/>
	<path id="XMLID_323_" class="st51" d="M142.91,692.81v31.38c0,3.54,2.87,6.42,6.42,6.42h15.75c3.54,0,6.42-2.87,6.42-6.42v-31.38
		H142.91L142.91,692.81z"/>
	<path id="XMLID_322_" class="st52" d="M165.88,704.44h-4.46v4.46h0.93c0.03,0.91-0.28,1.49-0.66,1.97
		c-0.9,1.13-2.32,1.46-3.43,1.52v-9.04H160l-3.06-5.31l-3.06,5.31h1.74V715c-1.11-0.06-2.52-0.39-3.43-1.52
		c-0.43-0.53-0.77-1.19-0.64-2.3c1.03-0.27,1.8-1.21,1.8-2.33c0-1.33-1.08-2.41-2.41-2.41c-1.33,0-2.41,1.08-2.41,2.41
		c0,0.54,0.18,1.05,0.49,1.45c-0.29,1.48-0.19,3.19,1.11,4.83c1.23,1.53,3.21,2.41,5.49,2.51v1.9c-1.03,0.49-1.74,1.54-1.74,2.76
		c0,1.69,1.37,3.06,3.06,3.06c1.69,0,3.06-1.37,3.06-3.06c0-1.22-0.71-2.27-1.74-2.76v-4.52c2.28-0.09,4.26-0.98,5.49-2.51
		c0.96-1.21,1.27-2.45,1.25-3.62h0.88V704.44L165.88,704.44z"/>
	<path id="XMLID_321_" class="st51" d="M103.74,702.11v23.66c0,2.67,2.16,4.84,4.84,4.84h11.87c2.67,0,4.84-2.17,4.84-4.84v-23.66
		H103.74L103.74,702.11z"/>
	<path id="XMLID_319_" class="st52" d="M121.05,710.88h-3.36v3.36h0.7c0.02,0.69-0.21,1.12-0.5,1.48c-0.68,0.85-1.75,1.1-2.58,1.14
		v-6.81h1.31l-2.31-4l-2.31,4h1.31v8.79c-0.83-0.05-1.9-0.29-2.58-1.14c-0.32-0.4-0.58-0.9-0.48-1.73c0.78-0.21,1.36-0.91,1.36-1.76
		c0-1-0.81-1.82-1.82-1.82c-1,0-1.82,0.81-1.82,1.82c0,0.41,0.14,0.79,0.37,1.09c-0.22,1.12-0.15,2.41,0.84,3.64
		c0.92,1.16,2.42,1.82,4.14,1.89v1.43c-0.78,0.37-1.31,1.16-1.31,2.08c0,1.28,1.03,2.31,2.31,2.31c1.28,0,2.31-1.03,2.31-2.31
		c0-0.92-0.54-1.71-1.31-2.08v-3.41c1.72-0.07,3.21-0.74,4.14-1.89c0.73-0.91,0.96-1.85,0.94-2.73h0.67V710.88L121.05,710.88z"/>
</g>
<g id="XMLID_345_">
	<path id="XMLID_343_" class="st53" d="M327.14,692.8c-1.95-0.41-3.04,2.61-1.19,2.99c5.76,1.21,10.56,4.87,13.15,10.06
		c2.52,5.04,2.64,10.94,0.33,16.17c-0.77,1.76,2.37,2.52,3.14,0.77c2.66-6.02,2.55-12.77-0.32-18.51
		C339.3,698.37,333.79,694.18,327.14,692.8L327.14,692.8z"/>
	<path id="XMLID_342_" class="st53" d="M321.89,699.59c-2.02-0.27-2.65,3.08-0.52,3.38c4.61,0.64,8.3,3.11,10.13,6.77
		c1.78,3.56,1.6,7.89-0.5,11.87c-1.01,1.9,2.1,3.35,3.06,1.54c2.62-4.97,2.82-10.42,0.55-14.96
		C332.27,703.51,327.63,700.38,321.89,699.59L321.89,699.59z"/>
	<path id="XMLID_341_" class="st54" d="M304.84,712.69c16.17-15.84,4.85-43.41-17.71-43.41c-19.69,0-28.05,18.17-26.8,39.77
		c0.1,1.79,1.08,2.65,2.28,2.76c0.53-0.54,0.9-1.38,0.83-2.64c-1.08-18.85,4.91-37.72,23.85-37.72c12.32,0,22.34,10.03,22.21,22.44
		c-0.06,5.93-2.43,11.49-6.67,15.64C302.83,709.54,304.69,712.93,304.84,712.69L304.84,712.69z"/>
	<path id="XMLID_340_" class="st55" d="M330.94,743.75l-24.27-30.13c0.02-0.03,0.05-0.06,0.06-0.09
		c17.76-17.39,5.32-47.66-19.45-47.66c-21.62,0-30.8,19.96-29.42,43.67c0.12,2.12,1.36,3.06,2.81,3.06c0.64,0,1.38-0.22,1.94-0.78
		c-1.19-0.12-2.18-0.97-2.28-2.76c-1.26-21.72,7.11-30.61,9.09-32.54c4.93-4.82,11.32-7.23,17.71-7.23c6.57,0,13.13,2.54,18.09,7.61
		c9.58,9.78,9.59,25.35,0.2,35.17l-5.93-7.36c-4.12-4.44-11.05-4.71-15.5-0.59l-5.36,4.97c-4.44,4.11-4.71,11.05-0.59,15.5
		l36.53,34.34c3.87,4.18,10.7,5.05,15.78,0.33C334.8,755.13,335.06,748.19,330.94,743.75L330.94,743.75z"/>
	<path id="XMLID_338_" class="st54" d="M301.38,714.1c3.57,3.86,3.34,9.88-0.51,13.46c-3.86,3.57-9.88,3.34-13.46-0.51
		c-3.57-3.86-3.34-9.88,0.51-13.46C291.78,710.01,297.8,710.24,301.38,714.1L301.38,714.1z"/>
</g>
<g id="XMLID_356_">
	<path id="XMLID_366_" class="st56" d="M456.57,701.46l-2.15,1.38c-0.13-0.21-0.27-0.42-0.4-0.63c-5.05-7.95-9.35-16.56-8.14-25.95
		c0.1-0.81,0.24-1.63,0.43-2.45c0.06-0.23,0.11-0.45,0.17-0.68l2.66-0.13c-0.12,0.46-0.24,0.92-0.34,1.37
		c-2.17,9.44,2.19,18.29,7.37,26.46C456.3,701.04,456.44,701.25,456.57,701.46L456.57,701.46z"/>
	<path id="XMLID_365_" class="st48" d="M464.84,721.61l-10.61,6.81l-7.04,4.51l-0.66-1.03c-2.79-4.36-3.7-9.38-2.94-14.11
		c0.88-5.47,4-10.56,9.03-13.79l1.8-1.15l8.04,12.55c-0.45,0.8-0.43,1.85,0.12,2.72L464.84,721.61L464.84,721.61z"/>
	<path id="XMLID_364_" class="st48" d="M491.34,758.29l-2.76,1.77c-7.56,4.86-17.15,4.03-23.73-1.4c-0.99-0.81-1.9-1.72-2.73-2.73
		c-0.51-0.62-0.99-1.27-1.43-1.96l-12.28-19.13l17.65-11.32l1.15,1.8c0.39,0.62,0.99,1.02,1.63,1.18c0.63,0.16,1.32,0.07,1.9-0.31
		L491.34,758.29L491.34,758.29z"/>
	<path id="XMLID_363_" class="st56" d="M494.1,756.52l-2.76,1.77l-16.15-25.19l-4.44-6.91c-0.58,0.38-1.27,0.47-1.9,0.31
		c-0.65-0.16-1.24-0.56-1.63-1.18l-1.15-1.8l-10.19,6.54l-7.45,4.78l-1.22-1.92l7.04-4.51l10.61-6.81l-2.25-3.5
		c-0.55-0.86-0.57-1.91-0.12-2.72l-8.04-12.55l0.34-0.21l2.15-1.38l1.22-0.79c5.05-3.23,10.99-3.94,16.34-2.45
		c3.16,0.88,6.11,2.53,8.55,4.88l0.57,0.57c0.89,0.93,1.71,1.97,2.43,3.1l5.38,8.39l0.75,1.18l8.03,12.51
		C506.21,738.02,503.49,750.51,494.1,756.52L494.1,756.52z"/>
	<polygon id="XMLID_362_" class="st57" points="466.94,720.25 468.17,722.17 448.42,734.84 447.19,732.92 466.94,720.25 	"/>
	<polygon id="XMLID_361_" class="st58" points="486.69,707.58 487.92,709.5 468.17,722.17 466.94,720.25 486.69,707.58 	"/>
	<path id="XMLID_360_" class="st57" d="M463.27,714.53L463.27,714.53l-7.89-12.3l-0.96,0.61l8.05,12.54l0,0
		C462.66,715.04,462.93,714.75,463.27,714.53L463.27,714.53z"/>
	<path id="XMLID_359_" class="st59" d="M463.27,714.53c-0.34,0.22-0.61,0.52-0.8,0.86l0,0c-0.44,0.81-0.43,1.85,0.12,2.72l4.63,7.22
		c0.39,0.61,0.99,1.02,1.63,1.17c0.63,0.16,1.32,0.07,1.9-0.3L463.27,714.53L463.27,714.53z"/>
	<path id="XMLID_358_" class="st58" d="M464.38,714.15L464.38,714.15l-8.05-12.54l-0.96,0.61l7.89,12.3
		C463.61,714.3,464,714.19,464.38,714.15L464.38,714.15z"/>
	<path id="XMLID_357_" class="st60" d="M471.43,722.62l-4.63-7.22c-0.39-0.61-0.99-1.02-1.63-1.17c-0.26-0.07-0.52-0.09-0.79-0.07
		l0,0c-0.39,0.03-0.77,0.15-1.11,0.37l0,0l7.48,11.66C471.91,725.44,472.22,723.84,471.43,722.62L471.43,722.62z"/>
</g>
<g id="XMLID_383_">
	<path id="XMLID_381_" class="st61" d="M173.05,570.93v31.88l-58.85,2.61l-2.61,24.39h-10.42c-2.31,0-4.48-0.62-6.35-1.7
		c-1.96-1.12-3.6-2.77-4.72-4.74c-1.09-1.88-1.71-4.07-1.71-6.41v-38.56c0-2.78,0.9-5.37,2.4-7.48H173.05L173.05,570.93z"/>
	<path id="XMLID_380_" class="st56" d="M257.95,578.42v38.56c0,7.1-5.72,12.84-12.79,12.84H118.49v-20.08h54.55v-38.81h82.49
		C257.05,573.03,257.95,575.62,257.95,578.42L257.95,578.42z"/>
	<polygon id="XMLID_379_" class="st13" points="118.49,634.83 227.84,634.83 227.84,609.73 118.49,609.73 118.49,634.83 	"/>
	<path id="XMLID_378_" class="st62" d="M173.04,602.82v6.92h53.81c0.55,0,0.99,0.45,0.99,1v23.1c0,0.55-0.44,1-0.99,1h-53.81v6.92
		h57.91c2.09,0,3.78-1.7,3.78-3.8v-31.34c0-2.1-1.69-3.79-3.78-3.79H173.04L173.04,602.82z"/>
	<path id="XMLID_377_" class="st56" d="M119.49,609.73h53.56v-6.92h-57.66c-2.09,0-3.78,1.7-3.78,3.79v23.21v8.13
		c0,2.1,1.69,3.8,3.78,3.8h57.66v-6.92h-53.56c-0.55,0-0.99-0.45-0.99-1v-4.02v-19.09C118.49,610.18,118.94,609.73,119.49,609.73
		L119.49,609.73z"/>
	<path id="XMLID_376_" class="st63" d="M173.04,533.66v31.93h-40.11v-29.5c0-1.34,1.09-2.43,2.44-2.43H173.04L173.04,533.66z"/>
	<path id="XMLID_375_" class="st64" d="M210.96,533.66h-37.92v31.93h40.34v-29.5C213.39,534.75,212.3,533.66,210.96,533.66
		L210.96,533.66z"/>
	<path id="XMLID_374_" class="st48" d="M173.05,526.73v6.92h-37.68c-1.34,0-2.43,1.1-2.43,2.43v29.5h-6.9v-31.74
		c0-3.94,3.17-7.12,7.09-7.12H173.05L173.05,526.73z"/>
	<path id="XMLID_373_" class="st56" d="M220.28,533.85v31.74h-6.9v-29.5c0-1.33-1.09-2.43-2.42-2.43h-37.91v-6.92h40.14
		c1.22,0,2.37,0.31,3.38,0.86c0.02,0.02,0.03,0.02,0.05,0.03c1.18,0.65,2.15,1.63,2.8,2.81c0,0,0,0.02,0.02,0.03
		C219.97,531.47,220.28,532.62,220.28,533.85L220.28,533.85z"/>
	<path id="XMLID_372_" class="st13" d="M229.92,574.77c0,1.15-0.93,2.09-2.08,2.09c-1.15,0-2.08-0.94-2.08-2.09
		c0-1.15,0.93-2.09,2.08-2.09C228.99,572.68,229.92,573.62,229.92,574.77L229.92,574.77z"/>
	<path id="XMLID_371_" class="st60" d="M238.89,574.77c0,1.15-0.93,2.09-2.08,2.09c-1.15,0-2.08-0.94-2.08-2.09
		c0-1.15,0.93-2.09,2.08-2.09C237.96,572.68,238.89,573.62,238.89,574.77L238.89,574.77z"/>
	<path id="XMLID_370_" class="st65" d="M173.05,565.59v5.34H90.8c2.31-3.24,6.1-5.34,10.38-5.34H173.05L173.05,565.59z"/>
	<path id="XMLID_369_" class="st62" d="M255.54,570.93h-82.49v-5.34h72.11C249.44,565.59,253.24,567.69,255.54,570.93L255.54,570.93
		z"/>
	<polygon id="XMLID_368_" class="st56" points="216.48,616.71 129.61,616.71 129.61,614.87 216.48,614.87 216.48,616.71 	"/>
	<polygon id="XMLID_367_" class="st56" points="216.48,621.82 129.61,621.82 129.61,619.97 216.48,619.97 216.48,621.82 	"/>
	<polygon id="XMLID_355_" class="st56" points="216.48,626.92 129.61,626.92 129.61,625.08 216.48,625.08 216.48,626.92 	"/>
</g>
<g id="XMLID_407_">
	<path id="XMLID_405_" class="st66" d="M298.06,531.96c0,2.95-2.57,5.35-5.76,5.35c-3.18,0-5.76-2.4-5.76-5.35
		c0-2.96,2.57-5.35,5.76-5.35C295.49,526.61,298.06,529.01,298.06,531.96L298.06,531.96z"/>
	<path id="XMLID_404_" class="st66" d="M293.15,587.43c0,4.34-3.78,7.86-8.45,7.86c-4.67,0-8.45-3.52-8.45-7.86
		c0-4.34,3.78-7.85,8.45-7.85C289.37,579.58,293.15,583.09,293.15,587.43L293.15,587.43z"/>
	<path id="XMLID_403_" class="st67" d="M364.94,540.13c0,1.99-1.73,3.59-3.86,3.59h-56.8c-2.14,0-3.87-1.61-3.87-3.59v-9.93
		c0-1.99,1.73-3.59,3.87-3.59h56.8c2.13,0,3.86,1.61,3.86,3.59V540.13L364.94,540.13z"/>
	<polygon id="XMLID_402_" class="st67" points="348.24,624.32 320.29,624.32 320.29,609.03 348.24,609.03 348.24,624.32 	"/>
	<polygon id="XMLID_399_" class="st67" points="354.71,619.74 305.18,619.74 305.18,613.61 354.71,613.61 354.71,619.74 	"/>
	<path id="XMLID_398_" class="st68" d="M386.53,599.8c0,1.99-1.73,3.59-3.86,3.59h-96.79c-2.14,0-3.87-1.61-3.87-3.59v-65.43
		c0-1.99,1.73-3.59,3.87-3.59h96.79c2.13,0,3.86,1.61,3.86,3.59V599.8L386.53,599.8z"/>
	<path id="XMLID_395_" class="st67" d="M390.62,579.02c0,1.99-1.73,3.59-3.86,3.59H325.4c-2.13,0-3.86-1.61-3.86-3.59V524.5
		c0-1.99,1.73-3.59,3.86-3.59h61.35c2.13,0,3.86,1.61,3.86,3.59V579.02L390.62,579.02z"/>
	<path id="XMLID_394_" class="st69" d="M377.36,531.19H334.8c-2.13,0-3.87,1.61-3.87,3.59v33.95c0,1.94,1.65,3.51,3.71,3.59
		l46.18-39.12C380.19,532.01,378.88,531.19,377.36,531.19L377.36,531.19z"/>
	<path id="XMLID_392_" class="st70" d="M334.64,572.32c0.05,0,0.1,0.01,0.16,0.01h42.56c2.14,0,3.86-1.61,3.86-3.59v-33.95
		c0-0.57-0.15-1.11-0.4-1.59L334.64,572.32L334.64,572.32z"/>
	<polygon id="XMLID_391_" class="st68" points="330.78,624.32 322.75,624.32 322.75,599.1 330.78,599.1 330.78,624.32 	"/>
	<polygon id="XMLID_390_" class="st68" points="345.78,624.32 337.75,624.32 337.75,599.1 345.78,599.1 345.78,624.32 	"/>
	<path id="XMLID_389_" class="st67" d="M299.27,608.4v16.55c4.91,0,8.9-3.71,8.9-8.28C308.17,612.1,304.19,608.4,299.27,608.4
		L299.27,608.4z"/>
	<path id="XMLID_388_" class="st67" d="M314.5,556.62c0,1.99-1.73,3.59-3.87,3.59h-16.36c-2.13,0-3.87-1.61-3.87-3.59v-14.28
		c0-1.99,1.73-3.59,3.87-3.59h16.36c2.13,0,3.87,1.61,3.87,3.59V556.62L314.5,556.62z"/>
	<path id="XMLID_387_" class="st69" d="M309.68,542.49h-14.46c-0.72,0-1.31,0.55-1.31,1.22v11.53c0,0.66,0.56,1.19,1.26,1.22
		l15.69-13.29C310.64,542.77,310.2,542.49,309.68,542.49L309.68,542.49z"/>
	<path id="XMLID_386_" class="st70" d="M295.17,556.46c0.02,0,0.04,0,0.05,0h14.46c0.73,0,1.31-0.55,1.31-1.22v-11.53
		c0-0.19-0.05-0.38-0.14-0.54L295.17,556.46L295.17,556.46z"/>
	<path id="XMLID_385_" class="st66" d="M302.39,578.39c-5.02,0-9.09,3.78-9.09,8.45c0,2.1,0.83,4.02,2.19,5.5l13.12-11.65
		C306.98,579.27,304.8,578.39,302.39,578.39L302.39,578.39z"/>
	<path id="XMLID_384_" class="st71" d="M308.6,580.69l-13.12,11.65c1.67,1.81,4.14,2.96,6.9,2.96c5.03,0,9.09-3.78,9.09-8.45
		C311.47,584.41,310.37,582.23,308.6,580.69L308.6,580.69z"/>
	<path id="XMLID_382_" class="st66" d="M381.22,587.99c0,1.63-1.42,2.96-3.18,2.96s-3.18-1.32-3.18-2.96c0-1.63,1.42-2.96,3.18-2.96
		S381.22,586.35,381.22,587.99L381.22,587.99z"/>
</g>
<g>
	<path class="st72" d="M211.89,798.95v27.44h-7.68v-19.1l-5.35,19.1h-4.44l-5.49-18.78v18.78h-2.67v-27.44h8.08l4.7,16.57
		l4.68-16.57H211.89z"/>
	<path class="st72" d="M236.74,825.67c-1.8,0.7-3.54,1.04-5.25,1.04c-2.52,0-4.07-0.78-4.66-2.35c-1.22,1.63-2.98,2.45-5.27,2.45
		c-4.28,0-6.41-1.98-6.41-5.95c0-3.02,1.96-5.13,5.87-6.35c3.59-1.12,5.39-2.48,5.39-4.06c0-2.08-1.03-3.12-3.1-3.12
		c-2.39,0-3.58,1-3.58,3.02c0,0.63,0.19,1.46,0.56,2.49l-3.64-0.7c-0.09-0.63-0.14-1.22-0.14-1.77c0-3.22,2.94-4.83,8.81-4.83
		c5.58,0,8.36,1.5,8.36,4.5v12.3c0,1.26,0.41,1.89,1.23,1.89c0.25,0,0.63-0.14,1.13-0.42L236.74,825.67z M226.35,814.21
		c-0.46,0.52-0.99,0.96-1.59,1.31c-1.51,0.88-2.27,2.37-2.27,4.46c0,2.68,0.52,4.02,1.57,4.02c1.53,0,2.29-1.33,2.29-3.98V814.21z"
		/>
	<path class="st72" d="M234.89,830.29l2.57-1.79l-0.02,0.62c0,1.63,0.4,2.45,1.19,2.45c0.82,0,1.23-0.6,1.23-1.79
		c0-0.66-0.49-1.79-1.47-3.4v-20.24c1.86,0,4.31-0.18,7.34-0.54v20.55l0.16,2.79l-1.23,3.48c-0.92,0.9-2.35,1.35-4.26,1.35
		C237.53,833.77,235.7,832.61,234.89,830.29z M241.87,798.27c2.28,0,3.42,0.88,3.42,2.65c0,1.77-1.14,2.65-3.42,2.65
		c-2.28,0-3.42-0.88-3.42-2.65C238.45,799.15,239.59,798.27,241.87,798.27z"/>
	<path class="st72" d="M258.92,805.61c6.7,0,10.05,3.54,10.05,10.61c0,7.08-3.35,10.62-10.05,10.62c-6.71,0-10.07-3.54-10.07-10.62
		C248.84,809.15,252.2,805.61,258.92,805.61z M258.9,807.4c-1.62,0-2.43,2.94-2.43,8.83c0,5.88,0.81,8.83,2.43,8.83
		c1.63,0,2.45-2.94,2.45-8.83C261.35,810.34,260.53,807.4,258.9,807.4z"/>
	<path class="st72" d="M286.64,813.49h-5.03c0.17-0.79,0.33-1.37,0.46-1.75c0.19-0.55,0.28-1.05,0.28-1.49
		c0-0.86-0.31-1.29-0.92-1.29c-0.47,0-0.92,0.57-1.35,1.7c-0.43,1.13-0.64,2.33-0.64,3.59v12.14h-7.34v-20.26l1.43,0.02
		c1.69,0,3.66-0.18,5.91-0.54v3.34c1.19-2.22,2.65-3.34,4.38-3.34c2.36,0,3.54,1.3,3.54,3.9c0,0.68-0.11,1.47-0.34,2.35
		C286.94,812.22,286.81,812.76,286.64,813.49z"/>
	<path class="st72" d="M298,798.95v27.44h-7.96v-27.44H298z"/>
	<path class="st72" d="M321.58,826.39h-7.34v-14.88c0-1.51-0.42-2.27-1.27-2.27c-0.86,0-1.6,0.6-2.23,1.8
		c-0.63,1.2-0.94,2.62-0.94,4.25v11.1h-7.34v-20.3c2.52,0,4.97-0.17,7.34-0.5v3.8c1.82-2.52,4.05-3.78,6.67-3.78
		c3.4,0,5.11,1.73,5.11,5.19V826.39z"/>
	<path class="st72" d="M336.29,806.13v2.27h-2.89v17.99h-7.34V808.4h-2.57v-2.27h2.57v-1.81c0-1.66,0.59-3.04,1.76-4.14
		c1.17-1.1,2.64-1.65,4.41-1.65c3.54,0,5.31,1.33,5.31,3.98c0,0.2-0.01,0.46-0.02,0.76l-3.48,1.23c0.19-0.7,0.28-1.25,0.28-1.65
		c0-1.42-0.5-2.13-1.49-2.13c-0.86,0-1.29,0.62-1.29,1.87c0,0.76,0.62,1.94,1.85,3.54H336.29z"/>
	<path class="st72" d="M347.83,805.61c6.7,0,10.05,3.54,10.05,10.61c0,7.08-3.35,10.62-10.05,10.62c-6.71,0-10.07-3.54-10.07-10.62
		C337.76,809.15,341.12,805.61,347.83,805.61z M347.81,807.4c-1.62,0-2.43,2.94-2.43,8.83c0,5.88,0.81,8.83,2.43,8.83
		c1.63,0,2.45-2.94,2.45-8.83C350.27,810.34,349.45,807.4,347.81,807.4z"/>
	<path class="st72" d="M364.82,819.7c2.36,0,3.54,1.18,3.54,3.54c0,2.36-1.18,3.54-3.54,3.54c-2.36,0-3.54-1.18-3.54-3.54
		C361.28,820.88,362.46,819.7,364.82,819.7z"/>
	<path class="st72" d="M391.9,826.39h-7.34v-14.88c0-1.51-0.42-2.27-1.27-2.27c-0.86,0-1.6,0.6-2.23,1.8
		c-0.63,1.2-0.95,2.62-0.95,4.25v11.1h-7.34v-20.3c2.52,0,4.97-0.17,7.34-0.5v3.8c1.82-2.52,4.05-3.78,6.67-3.78
		c3.4,0,5.11,1.73,5.11,5.19V826.39z"/>
	<path class="st72" d="M410.54,818.98l2.96,0.86c-0.31,4.68-3.07,7.02-8.28,7.02c-6.75,0-10.13-3.37-10.13-10.11
		c0-3.27,0.9-5.95,2.69-8.04s4.09-3.14,6.9-3.14c5.86,0,8.79,3.78,8.79,11.34h-10.7c0,5.31,1.35,7.96,4.04,7.96
		c2.52,0,3.78-1.5,3.78-4.5C410.58,819.96,410.57,819.5,410.54,818.98z M402.74,814.63h4.38c0-4.72-0.71-7.08-2.13-7.08
		c-1.29,0-2.01,1.75-2.17,5.25L402.74,814.63z"/>
	<path class="st72" d="M427.55,806.19v2.27h-3.26v14.33c0,0.9,0.29,1.35,0.86,1.35c0.42,0,0.66-0.3,0.74-0.9l2.09,0.2
		c-0.58,2.12-2.41,3.18-5.51,3.18c-3.69,0-5.53-1.57-5.53-4.7v-13.45h-2.45v-2.27h2.45v-3.58c2.53-0.7,4.98-1.7,7.34-3.02v6.59
		H427.55z"/>
</g>
<path id="XMLID_417_" class="st73" d="M469.56,163.38H160.09V92.22c0-8.79,7.13-15.92,15.92-15.92h277.63
	c8.79,0,15.92,7.13,15.92,15.92V163.38z"/>
<path id="XMLID_419_" class="st74" d="M469.56,163.38H160.09v-58.71c0-8.79,7.13-15.92,15.92-15.92h277.63
	c8.79,0,15.92,7.13,15.92,15.92V163.38z"/>
<g>
	<path class="st13" d="M205.13,126.91V120h19.05v6.91H205.13z"/>
	<path class="st13" d="M244.17,111.43v5.7h-9.75l-0.28,3.4c1.27-0.62,2.62-0.93,4.04-0.93c2.51,0,4.47,0.94,5.87,2.82
		c1.4,1.88,2.11,4.32,2.11,7.32c0,2.66-0.68,4.87-2.05,6.63c-1.55,2.02-3.73,3.03-6.52,3.03c-2,0-3.68-0.35-5.03-1.04
		c-1.85-0.96-3.45-2.67-4.78-5.14l4.41-3.37c0.9,2.55,2.37,3.82,4.41,3.82c1.18,0,2.12-0.45,2.81-1.35
		c0.62-0.82,0.93-1.83,0.93-3.01c0-1.2-0.36-2.21-1.07-3.03c-0.81-0.92-1.86-1.38-3.17-1.38c-1.59,0-3.06,0.78-4.41,2.33l-3.06-2.56
		l1.43-13.26H244.17z"/>
	<path class="st13" d="M248.84,125.39c0-4.78,1.07-8.4,3.2-10.87c1.82-2.06,4.06-3.09,6.74-3.09c2.73,0,5,1.03,6.8,3.09
		c2.15,2.47,3.23,6.1,3.23,10.87c0,4.79-1.08,8.43-3.23,10.9c-1.8,2.08-4.06,3.12-6.8,3.12c-2.68,0-4.93-1.04-6.74-3.12
		C249.91,133.82,248.84,130.18,248.84,125.39z M254.51,125.39c0,3.13,0.49,5.4,1.46,6.83c0.75,1.07,1.69,1.6,2.81,1.6
		c1.27,0,2.29-0.65,3.06-1.94c0.88-1.44,1.32-3.6,1.32-6.49c0-2.87-0.44-5.02-1.32-6.46c-0.77-1.29-1.79-1.94-3.06-1.94
		c-1.12,0-2.06,0.53-2.81,1.6C255,120.03,254.51,122.3,254.51,125.39z"/>
	<path class="st13" d="M277.46,116.51l-6.07-6.07l5.59-5.56l6.07,6.07L277.46,116.51z M275.67,140.25l14.35-38.04l5.65,0.56
		l-14.38,38.04L275.67,140.25z M294.23,138.51l-6.07-6.07l5.59-5.56l6.07,6.07L294.23,138.51z"/>
	<path class="st13" d="M339.43,134.74c-3.35,3.03-7.63,4.55-12.84,4.55c-4.64,0-8.6-1.43-11.85-4.3c-3.52-3.13-5.28-7.25-5.28-12.36
		c0-5.66,1.74-10.13,5.23-13.43c3.33-3.13,7.63-4.69,12.89-4.69c4.89,0,8.94,1.47,12.16,4.41c3.43,3.13,5.14,7.26,5.14,12.39
		C344.88,127.01,343.06,131.48,339.43,134.74z M333.7,113.45c-1.61-1.67-3.76-2.5-6.46-2.5s-4.87,0.82-6.52,2.47
		c-1.87,1.87-2.81,4.72-2.81,8.54c0,7.27,3.06,10.9,9.19,10.9c2.87,0,5.12-0.96,6.77-2.87c1.7-1.97,2.56-4.7,2.56-8.2
		C336.43,118.12,335.52,115.34,333.7,113.45z"/>
	<path class="st13" d="M370.02,111.2h-13.91v9.24h12.39v6.63h-12.39v11.94h-7.64v-34.5h21.55V111.2z"/>
	<path class="st13" d="M395.22,111.2h-13.91v9.24h12.39v6.63h-12.39v11.94h-7.64v-34.5h21.55V111.2z"/>
</g>
<g id="XMLID_3_">
	<rect id="XMLID_423_" x="431.49" y="73.92" class="st75" width="18.68" height="61.96"/>
	
		<rect id="XMLID_429_" x="431.49" y="73.92" transform="matrix(4.508731e-11 1 -1 4.508731e-11 545.7387 -335.9295)" class="st76" width="18.68" height="61.96"/>
	<rect id="XMLID_437_" x="433.86" y="73.92" class="st13" width="18.68" height="61.96"/>
	
		<rect id="XMLID_436_" x="433.86" y="73.92" transform="matrix(4.469828e-11 1 -1 4.469828e-11 548.0994 -338.2902)" class="st13" width="18.68" height="61.96"/>
</g>
</svg>
